<?xml version="1.0" encoding="utf-8"?>
<!-- Generator: Adobe Illustrator 16.0.3, SVG Export Plug-In . SVG Version: 6.00 Build 0)  -->
<!DOCTYPE svg PUBLIC "-//W3C//DTD SVG 1.1//EN" "http://www.w3.org/Graphics/SVG/1.1/DTD/svg11.dtd">
<svg version="1.1" id="Calque_1" xmlns="http://www.w3.org/2000/svg" xmlns:xlink="http://www.w3.org/1999/xlink" x="0px" y="0px"
	 width="300px" height="224.6px" viewBox="0 0 300 224.6" enable-background="new 0 0 300 224.6" xml:space="preserve">
<g>
	<defs>
		<filter id="Adobe_OpacityMaskFilter" filterUnits="userSpaceOnUse" x="24.9" y="18.6" width="84.3" height="140.6">
			
				<feColorMatrix  type="matrix" values="-1 0 0 0 1  0 -1 0 0 1  0 0 -1 0 1  0 0 0 1 0" color-interpolation-filters="sRGB" result="source"/>
			<feFlood  style="flood-color:white;flood-opacity:1" result="back"/>
			<feBlend  in="source" in2="back" mode="normal"/>
		</filter>
	</defs>
	<mask maskUnits="userSpaceOnUse" x="24.9" y="18.6" width="84.3" height="140.6" id="SVGID_1_">
		<g filter="url(#Adobe_OpacityMaskFilter)">
			<rect x="24.9" y="18.6" width="84.3" height="140.6"/>
			<g enable-background="new    ">
				<rect x="24.9" y="103" fill="#B2B2B2" width="28.1" height="56.2"/>
				<rect x="24.9" y="18.6" fill="#878787" width="28.1" height="56.2"/>
			</g>
		</g>
	</mask>
	<g mask="url(#SVGID_1_)">
		<g>
			<defs>
				<rect id="SVGID_2_" x="24.9" y="18.6" width="84.3" height="140.6"/>
			</defs>
			<clipPath id="SVGID_3_">
				<use xlink:href="#SVGID_2_"  overflow="visible"/>
			</clipPath>
			<polygon clip-path="url(#SVGID_3_)" points="53,74.8 53,18.6 24.9,18.6 24.9,159.2 53,159.2 53,103 81.1,103 81.1,159.2 
				109.2,159.2 109.2,74.8 			"/>
		</g>
	</g>
	<path d="M167.8,120.7c-0.1-0.1-0.3-0.2-0.4-0.3c-0.1-0.1-0.2-0.2-0.4-0.3c-0.2-0.3-0.4-0.5-0.6-0.5c0.1,0.1,0.4,0.3,0.8,0.6
		L167.8,120.7z M163.1,119.4c0.2,0.1,0.4,0.1,0.7,0.1c0.2,0,0.4,0.1,0.6,0.2c0.5,0.1,1,0.3,1.4,0.6c0.4,0.3,0.8,0.6,1.1,1l0.1,0.1
		C165.7,120.2,164.4,119.5,163.1,119.4 M160.2,134.8l-0.4,0l0,0.1C159.9,134.9,160,134.8,160.2,134.8 M161.2,133.7
		c-0.1-0.1-0.3-0.1-0.7,0c-0.4,0-0.7,0.1-0.8,0.3c0.1-0.1,0.4-0.2,0.9-0.3C160.9,133.7,161.1,133.7,161.2,133.7 M161.9,145.4
		c0.6-1.9,1-3.5,1.1-4.9c0.2-1.3,0.2-2.4,0.2-3.3c-0.1-0.9-0.2-1.5-0.4-2c-0.2-0.5-0.3-0.8-0.5-1c-0.1-0.3-0.4-0.4-0.8-0.5l0.1,0.1
		l0.3,0.2l0,0.1l0.2,0l0.2,0.2l0,0.3c0.1,0.1,0.1,0.2,0.2,0.2c0,0,0.1,0.1,0.2,0.2c0,0.1,0,0.1,0.1,0.2l0,0.1l0,0.2l0,0.1l-0.1-0.1
		l0,0.1l-0.1,0.1l0.1,0.5l0,0.2l0,0.1l-0.1,0.5l0,0.2l-0.1,0.1c0.1,0.3,0.1,0.7,0.1,1.3c-0.1,0.5-0.1,1-0.1,1.6l0,0.2l-0.1-0.2
		l0,0.1c0,0.5-0.2,0.7-0.4,0.8l-0.1,0l0,0.2c0,0.5-0.1,0.8-0.3,1.1l0.1-0.1c0-0.3,0.1-0.7,0.1-1.1c0-0.4,0.1-0.8,0.1-1.4
		c0.3-1.4,0.4-2.3,0.1-2.8c0.1-0.3,0.1-0.5,0-0.8c-0.1-0.3-0.1-0.5-0.2-0.6c-0.2-0.4-0.4-0.6-0.6-0.8l0.1,0l0.1,0.1l0,0.1l0.1,0.1
		l0.1,0.3l0.1,0.2l-0.1,0.3l0,0.1l0.1,0.4c0,0.2,0.1,0.4,0.2,0.5l-0.2,0.2c0,0.1,0,0.1,0,0.2c0,0,0,0.1,0,0.2
		c0.2,0.4,0.2,0.9,0.1,1.5c-0.1,0.6-0.2,1.3-0.2,1.9c-0.1,0.5-0.2,1-0.3,1.5c-0.1,0.5-0.3,1-0.4,1.5c-0.1,0.2-0.2,0.4-0.2,0.6
		c-0.1,0.2-0.1,0.4-0.2,0.5l-0.1,0c0.3-0.8,0.5-1.5,0.6-2.2c0.1-0.7,0.3-1.3,0.3-1.9c0.1-0.4,0.1-0.8,0.2-1.2s0-0.7,0.1-1.1
		c0.1-0.4,0.1-0.7,0.1-1c-0.1-0.3-0.1-0.5,0-0.8c-0.1,0.1-0.1,0.2,0,0.3c0,0,0.1,0.1,0.1,0.1l-0.1,0l-0.1-0.5l0-0.2
		c-0.1-0.1-0.1-0.2-0.1-0.4c-0.1-0.1-0.1-0.1-0.1-0.2l0-0.1c-0.2,0-0.2,0,0.1-0.2l-0.1-0.1l0-0.1l0,0.1c-0.1,0.1-0.1,0.4,0,0.7
		l-0.1,0l-0.1-0.1c-0.1-0.1-0.2-0.1-0.3-0.2c-0.1-0.1-0.2-0.2-0.2-0.2c0,0,0-0.1,0-0.2l-0.1,0c-0.1,0.1-0.3,0.1-0.4,0.2
		c-0.1,0-0.3,0.1-0.4,0.2l-0.1,0.1l-0.1,0.1l-0.1,0.1l-0.1,0l-0.1,0.3c-0.3,0.2-0.7,0.5-1.2,1l-0.1,0.1c0,0.1,0,0.1-0.1,0.1
		l-0.1,0.2l-0.4,0.3l-0.3,0.4c-0.3,0.4-0.6,0.9-0.8,1.3c-0.3,0.4-0.6,0.9-0.9,1.5c-0.5,0.9-0.9,1.8-1.2,2.8c-0.4,0.9-0.7,2-1.2,3.2
		c-0.2,0.4-0.3,0.9-0.5,1.4c-0.2,0.6-0.3,1.1-0.5,1.6c-0.1,0.3-0.2,0.8-0.3,1.2c-0.1,0.5-0.2,1.1-0.5,1.7c-0.1,0.5-0.2,1.2-0.2,1.8
		c-0.1,0.7-0.2,1.3-0.2,1.8l0.5,0l0.1,0l0.3,0l0.2,0l0.1-0.1c1-0.3,1.8-0.9,2.6-1.7c0.4-0.4,0.7-0.7,1-1.1c0.3-0.4,0.6-0.7,1.1-1.1
		c0.1-0.3,0.2-0.5,0.4-0.8c0.1-0.2,0.3-0.5,0.5-0.7c0.1-0.3,0.2-0.5,0.3-0.6c0-0.1,0-0.2,0-0.2c0,0,0,0,0-0.1
		c0.1-0.1,0.2-0.1,0.2-0.2c0,0,0.1-0.1,0.1-0.1l0.2-0.1c0-0.1,0-0.2,0.2-0.3l0.1-0.1c0-0.3,0.2-0.5,0.3-0.8c0.1-0.3,0.2-0.4,0.2-0.5
		c0-0.1,0.1-0.2,0.1-0.3c0-0.1,0.1-0.1,0.2-0.1c0-0.2,0.2-0.4,0.4-0.6l0.2-0.2l0.2,0l0,0.1l-0.2,0c0.1-0.1,0.2-0.1,0.3-0.1l0.1,0
		l-0.1,0.1c0.1-0.1,0.2-0.3,0.3-0.4c0.1-0.1,0.1-0.1,0.1-0.2l0.1,0l0.1-0.1c0-0.1,0-0.1,0-0.1c0,0,0,0,0-0.1l0.1-0.1l0.2-0.1l0.1,0
		l0,0.2l0-0.1l0.1-0.1c0.1-0.1,0.1-0.3,0.2-0.5C161.7,145.7,161.8,145.6,161.9,145.4 M172.6,126.6c0.3,1,0.5,2.1,0.7,3.2
		c0.2,1.2,0.3,2.5,0.2,3.9c0.1,1.1,0.1,2.3-0.1,3.5c-0.1,1.2-0.3,2.4-0.6,3.6c-0.4,2.3-1,4.6-1.7,6.8c-0.8,2.2-1.7,4.5-2.9,6.9
		c-0.1,0.1-0.2,0.3-0.4,0.5c0,0.1,0,0.2-0.1,0.3c-0.1,0.1-0.2,0.2-0.2,0.3l-0.1,0.3l-1,1.8l-1.2,1.8l-0.8,1.3
		c-0.2,0.6-0.5,1.1-0.8,1.5c-0.3,0.5-0.6,1-0.9,1.5c-0.4,0.6-0.8,1.1-1.1,1.5c-0.3,0.5-0.7,1-1.1,1.5c-0.7,1.1-1.5,2-2.5,2.9
		c-0.7,1.1-1.5,2-2.4,2.7c-0.1,0-0.2,0.1-0.3,0.2l-0.1,0c-0.1,0-0.1,0-0.1,0.1l-0.1,0.1c-0.3,0-0.5,0.1-0.6,0.2l-0.2,0.3l-0.2,0.2
		l-0.1,0.1c-0.4,0.2-0.8,0.5-1.1,0.7c-0.4,0.2-0.7,0.4-1.1,0.6l-0.1,0c-0.1,0-0.2,0-0.3,0.1c-0.1,0-0.2,0.1-0.3,0.1l-0.1,0.1
		c-0.1,0-0.1,0-0.1,0.1c0,0-0.1,0.1-0.2,0.1l-0.6,0l-0.2,0.1l-0.1,0c0,1.7,0,3.6,0.1,5.6c0,2,0.1,4.1,0.1,6.3c0,0.3,0,0.8,0,1.5
		c-0.1,0.9,0,1.9,0,2.8c0.1,0.9,0.1,1.8,0,2.7c-0.1,0.5-0.1,1.1-0.1,1.7c0,0.6,0,1.2-0.1,1.7c-0.1,0.3-0.2,0.7-0.2,1
		c0,0.3,0,0.6-0.1,0.9c-0.1,0.3-0.2,0.7-0.2,1c0,0.3-0.1,0.7-0.2,1.2c-0.1,0.3-0.2,0.6-0.4,0.9c-0.1,0.2-0.3,0.5-0.4,0.7
		c-0.1,0.1-0.2,0.3-0.4,0.3c-0.1,0.1-0.3,0.2-0.6,0.4c-0.1,0.1-0.2,0.3-0.4,0.3c-0.1,0.1-0.3,0.2-0.5,0.3c-0.1,0.1-0.2,0.1-0.3,0.2
		c-0.1,0-0.2,0.1-0.3,0.2c-0.3,0.2-0.5,0.2-0.9,0.3c-0.3,0.1-0.6,0.2-0.8,0.2c-0.2,0-0.5,0-0.8,0.1l-0.1,0.1l-0.2,0l-0.3,0
		c-0.1,0-0.3,0-0.5,0c-0.2,0-0.3,0-0.4-0.1c-0.3,0-0.6,0-0.9,0c-0.2,0-0.6,0-1-0.1c-0.5-0.1-1-0.2-1.5-0.5c-0.5-0.2-0.9-0.4-1.4-0.6
		c0-0.1-0.2-0.3-0.5-0.4l-0.2-0.2c-0.1-0.1-0.3-0.2-0.5-0.4c-0.2-0.2-0.4-0.4-0.6-0.5c-0.2-0.2-0.3-0.4-0.5-0.6
		c-0.4-0.4-0.7-0.7-0.9-1.1c-0.3-0.4-0.6-0.8-0.9-1.2c-0.5-0.7-0.8-1.5-1.1-2.3c-0.3-0.8-0.6-1.7-0.9-2.6c-0.1-0.9-0.2-1.8-0.3-2.5
		c-0.1-0.8-0.1-1.6-0.2-2.5c-0.1-1.5-0.1-3.1,0-4.7c0.1-1.6,0.2-3.3,0.4-5.1c0.3-1.7,0.5-3.2,0.8-4.6c0.3-1.4,0.5-2.4,0.8-3.2
		c0.2-1.3,0.5-2.5,0.8-3.7c0.3-1.2,0.6-2.3,0.9-3.5l0.2-0.4c0.1-0.7,0.3-1.2,0.3-1.4c0.1-0.3,0.2-0.6,0.4-1l0-0.3l0.2-0.2
		c0-0.3,0.1-0.5,0.2-0.8c0.1-0.3,0.2-0.6,0.2-0.9c0.1-0.3,0.2-0.5,0.3-0.6c0.1-0.1,0.2-0.3,0.2-0.4l0.1-0.2l0.1-0.2l-0.1,0.2
		c-0.1,0.2-0.1,0.4-0.1,0.6c0-0.3,0-0.4,0.2-0.4l0.1,0l-0.1,0.1c-0.1,0-0.1,0-0.1,0.1c0.1-0.3,0.3-0.9,0.6-1.8l0.1,0
		c0.1-0.1,0.1-0.3,0.2-0.4c0.1-0.1,0.1-0.3,0.2-0.4c0.1-0.1,0.1-0.4,0-0.7c0.1-0.1,0.1-0.1,0.1-0.2c0,0,0.1-0.1,0.2-0.2l0.1-0.2
		l0,0.1c0-0.1,0-0.2,0.1-0.3l0.1-0.1l0.1-0.1l0.2,0.1l-0.1,0.1c-0.1,0.1-0.1,0.1-0.1,0.2c0,0.1-0.1,0.2-0.2,0.3l0.3-0.1
		c0.1-0.1,0.2-0.2,0.2-0.3c0-0.1,0-0.1,0.1-0.2l0-0.1c0.2-1.1,0.5-2.2,0.9-3.3c1.7-5.4,3.5-10.1,5.4-14.3c1.9-4.1,4-7.6,6.1-10.4
		c1.7-2.4,3.5-4.2,5.1-5.6c1.7-1.4,3.3-2.2,4.9-2.4c-0.1,0-0.3,0-0.5,0c-0.2,0-0.5,0.1-0.9,0.2c-0.2,0.1-0.4,0.1-0.5,0.2
		c-0.2,0-0.4,0.1-0.6,0.2c-0.4,0.2-0.8,0.5-1,0.8c-0.7,0.4-1.3,0.8-1.9,1.2c-0.5,0.4-1,0.8-1.3,1.2c-0.1,0.1-0.2,0.1-0.3,0.1
		c-0.1,0-0.1,0-0.1,0.1c0,0,0,0.1-0.1,0.1l-0.1,0l-0.2,0.3l0.2-0.4l0.1-0.1c-0.1,0.1-0.2,0.3-0.3,0.4c-0.1,0.1-0.1,0.2-0.2,0.3
		c-0.1,0.1-0.4,0.4-0.8,0.8c-0.4,0.4-0.8,0.8-1,1.3c-0.3,0.4-0.6,0.7-0.9,1.1c-0.3,0.4-0.5,0.7-0.6,1c-1,1.2-1.9,2.4-2.6,3.7
		c-0.7,1.3-1.5,2.8-2.4,4.4l-0.1,0c-0.1,0-0.1,0-0.1,0.1c0,0.1,0,0.1-0.1,0.2c0,0.3-0.2,0.5-0.3,0.8c-0.1,0.3-0.2,0.6-0.4,0.8
		c-0.1,0.2-0.3,0.4-0.3,0.5l-0.1,0c-0.1,0.1-0.2,0.3-0.2,0.5c0,0.2-0.1,0.3-0.2,0.5c-0.2,0.6-0.4,1-0.6,1.5
		c-0.2,0.4-0.4,0.8-0.5,1.3c-0.1,0.2-0.2,0.5-0.3,0.9l-0.1-0.1c0.6-1.4,1.2-2.7,1.7-4c0.5-1.3,1-2.6,1.7-3.9
		c0.8-1.7,1.6-3.2,2.4-4.7c0.8-1.4,1.7-2.8,2.7-4c0.5-0.7,1.1-1.4,1.7-2.1c0.6-0.7,1.2-1.3,1.8-1.9c0.6-0.7,1.4-1.3,2.3-1.9
		c0.6-0.5,1.3-0.9,1.9-1.3c-0.1,0.1-0.3,0.2-0.5,0.2c-0.2,0-0.4,0.1-0.5,0.2c-0.9,0.7-1.8,1.4-2.6,2c-1.1,1-2,2.1-2.8,3.2
		s-1.6,2-2.2,2.8c-1,1.4-2,3-2.9,4.8c-0.9,1.8-1.8,3.6-2.7,5.7c-0.8,1.9-1.6,3.7-2.2,5.4c-0.6,1.7-1.2,3.2-1.6,4.4
		c-0.1,0.3-0.2,0.5-0.2,0.7c-0.1,0.2-0.1,0.4-0.3,0.5c-0.2,0.6-0.4,1.1-0.5,1.5c-0.1,0.4-0.2,0.8-0.3,1.1l-0.1,0
		c0.7-2.5,1.5-4.9,2.3-7.1c0.8-2.2,1.7-4.3,2.6-6.4c0.5-1.2,1-2.3,1.6-3.5c0.5-1.1,1.2-2.2,1.9-3.2c1.1-2.2,2.3-4.1,3.7-5.7
		l-0.1,0.1c-0.1,0.1-0.3,0.3-0.5,0.5c-0.2,0.2-0.4,0.4-0.5,0.6l-0.1-0.1c0.4-0.4,0.8-0.9,1.2-1.5c0.4-0.6,0.8-1.2,1.3-1.8
		c0.3-0.4,0.7-0.7,1.1-1c0.4-0.3,0.8-0.7,1.1-1c0.1-0.1,0.2-0.2,0.3-0.3c0.1,0,0.2-0.1,0.2-0.2l-0.1,0.1l-0.2,0
		c-0.2,0.2-0.5,0.4-0.7,0.7c-0.2,0.2-0.5,0.4-0.8,0.7c-0.1,0.2-0.3,0.4-0.5,0.6c-0.2,0.2-0.4,0.4-0.6,0.5c-0.1,0.1-0.2,0.1-0.3,0.1
		c0-0.1,0-0.1,0-0.2c0,0,0.2-0.2,0.5-0.4l0.4-0.4l0.2-0.3c0.1-0.3,0.2-0.4,0.2-0.5c0.7-0.6,1.3-1.1,1.8-1.6c0.5-0.4,1.1-0.9,1.8-1.3
		c0.4-0.2,0.7-0.4,1-0.6c0.3-0.2,0.6-0.4,1-0.5c0.7-0.4,1.5-0.7,2.3-0.8c0.3-0.1,0.7-0.2,1-0.2c0.3,0,0.7-0.1,1.1-0.1
		c0.3,0,0.7,0.1,1.1,0.1c0.4,0,0.7,0.1,1,0.2c0.5,0.1,1,0.2,1.3,0.4c0.3,0.2,0.7,0.3,1,0.5c0.3,0.2,0.6,0.4,0.8,0.5
		c0.3,0.2,0.6,0.4,1,0.6c0.6,0.5,1,1,1.4,1.6c0.4,0.6,0.8,1.2,1.3,1.7c0.2,0.6,0.4,1.2,0.6,1.7C172.2,125.2,172.4,125.8,172.6,126.6
		"/>
	<path d="M203,154.5l0.4-1l-0.2,0.4L203,154.5z M202.9,154.1c-0.1,0.3-0.2,0.4-0.2,0.5c0,0-0.1,0.2-0.2,0.6c0.1-0.1,0.1-0.2,0.2-0.5
		C202.8,154.4,202.9,154.2,202.9,154.1c-0.1,0.1-0.1,0.2,0,0.2C202.9,154.2,202.9,154.1,202.9,154.1 M201.3,158.6l0.4-1
		c0.1,0,0,0.2-0.2,0.6C201.3,158.6,201.3,158.7,201.3,158.6 M199.1,163.8c-0.1,0.3-0.2,0.5-0.3,0.8c-0.1,0.2-0.3,0.5-0.4,0.8
		c0.2-0.2,0.3-0.4,0.4-0.5c0.3-0.6,0.5-1.1,0.8-1.6c0.2-0.5,0.4-1,0.7-1.5c-0.1,0.1-0.3,0.4-0.4,0.8
		C199.5,162.9,199.3,163.4,199.1,163.8 M192.5,167.2c-0.2-0.6-0.2-1.2-0.1-1.7C192.4,166.1,192.4,166.7,192.5,167.2
		c0,0.4,0.1,0.7,0.2,0.9c0,0.3,0.1,0.6,0.2,0.8c0.1,0.1,0.2,0.2,0.3,0.3c0,0.1,0.1,0.1,0.3,0.2c0.2,0.1,0.4,0.1,0.6-0.1
		c0.3-0.1,0.5-0.2,0.7-0.5l0.3-0.3l-0.1,0.1l0.3-0.3l-0.2,0.2l0.2-0.2c0.5-0.6,0.9-1.2,1.3-2c-0.1,0.1-0.1,0-0.1-0.1
		c0-0.2,0.1-0.3,0.2-0.5c0.1-0.2,0.2-0.4,0.3-0.6c0.1-0.2,0.1-0.2,0-0.1c-0.2,0.3-0.4,0.6-0.6,1.1c-0.2,0.4-0.4,0.9-0.7,1.4
		c-0.1,0.2-0.2,0.4-0.3,0.6c-0.1,0.2-0.2,0.3-0.3,0.5l-0.2,0.2c-0.1,0.1-0.2,0.2-0.3,0.2c-0.1,0.1-0.2,0.1-0.3,0.2
		c-0.3,0.2-0.5,0.2-0.7,0.2c-0.2,0-0.4-0.1-0.5-0.5c-0.2-0.3-0.2-0.5-0.3-0.8c0-0.1,0-0.3-0.1-0.4
		C192.6,167.5,192.5,167.3,192.5,167.2 M185.8,148.4c0-0.1,0,0-0.1,0.2c-0.1,0.2-0.2,0.3-0.2,0.5l0,0.1c0.1-0.1,0.1-0.2,0.2-0.3
		c0.1-0.1,0.1-0.1,0.1-0.2C185.7,148.6,185.7,148.5,185.8,148.4 M184,139.5l0.8-0.4c0.2-0.1,0.4-0.2,0.7-0.2s0.5-0.1,0.6-0.2l0.2,0
		c-0.1,0-0.2,0-0.4,0c-0.2,0-0.4,0.1-0.6,0.3c-0.2,0.1-0.4,0.2-0.7,0.3C184.4,139.4,184.2,139.5,184,139.5 M182.5,167.5
		c0.2,0.2,0.5,0.2,0.8,0c0.9-0.5,1.7-1.6,2.5-3.3c0.8-1.7,1.5-3.6,2.1-5.6c0-0.1,0-0.3,0.1-0.6c0.1-0.2,0.1-0.4,0.2-0.7
		c0.1-0.3,0.2-0.6,0.3-0.9c-0.1,0.1-0.2,0.5-0.4,0.9c-0.1,0.5-0.2,0.9-0.3,1.2c-0.1,0.1-0.2,0.4-0.4,0.9c-0.1,0.2-0.2,0.4-0.2,0.6
		c0,0.2-0.1,0.3-0.2,0.4c0,0.1,0-0.2,0.1-0.7c-0.1,0.1-0.1,0.3-0.1,0.5c0,0.2-0.1,0.3-0.1,0.5c-0.1,0.1-0.1,0.3-0.2,0.6
		c-0.1,0.3-0.2,0.5-0.3,0.6c-0.2,0.4-0.3,0.7-0.5,1c-0.1,0.3-0.3,0.7-0.5,1c0-0.1,0-0.2,0.1-0.3c0.1-0.1,0.1-0.2,0-0.3
		c-0.1,0.3-0.2,0.5-0.2,0.7c-0.2,0.2-0.3,0.3-0.5,0.4c0.1-0.1,0.1-0.1,0.1-0.2c0-0.1,0.1-0.2,0.2-0.3c-0.1,0.1-0.1,0.2-0.2,0.3
		c-0.1,0.1-0.2,0.3-0.2,0.4c-0.2,0.4-0.4,0.7-0.5,0.7c0.6-1.1,1.3-2.5,1.9-4.1c0.2-0.4,0.3-0.8,0.4-1.2c0.1-0.4,0.3-0.8,0.4-1.2
		l0.1-0.3c0-0.1,0-0.1,0-0.2c0,0,0-0.1,0-0.2c0.1-0.1,0.1-0.2,0.1-0.3c0-0.1,0-0.2,0.1-0.3c0-0.3,0.2-0.7,0.4-1.2
		c-0.1,0.1-0.2,0.4-0.4,0.9c-0.1,0.1-0.1,0.3-0.1,0.4c0,0.1,0,0.2-0.1,0.4c0,0.1,0,0.1,0,0.2c0,0.1,0,0.1,0,0.2
		c-0.1,0.1-0.1,0.2-0.1,0.3c-0.2,0.2-0.4,0.6-0.5,1.2c-0.1,0.6-0.4,1.2-0.7,1.7c-0.2,0.4-0.3,0.8-0.5,1.3c-0.2,0.5-0.4,0.9-0.7,1.3
		c-0.2,0.4-0.4,0.8-0.6,1.1c-0.2,0.4-0.4,0.7-0.6,0.9c-0.1,0.1-0.1,0.1-0.1,0.1c0,0-0.1,0-0.1,0.1c-0.1,0.1-0.1,0.1-0.2,0.1
		c0.3-0.2,0.6-0.5,0.8-0.9c0.1-0.2,0.2-0.4,0.4-0.7c0.1-0.2,0.3-0.5,0.4-0.8c0.3-0.5,0.5-1,0.8-1.6c0.2-0.6,0.5-1.1,0.8-1.7
		c0-0.1,0-0.1-0.1,0c0,0.1-0.1,0.2-0.1,0.2c0.1-0.1,0.1-0.3,0.1-0.4c0-0.1,0.1-0.2,0.1-0.4c-0.1,0.1-0.2,0.3-0.2,0.5
		c0,0.2-0.1,0.4-0.1,0.5c0.1-0.3,0.2-0.7,0.3-1c0.1-0.3,0.2-0.8,0.4-1.3c-0.1,0.1-0.2,0.4-0.3,0.7c-0.1,0.3-0.2,0.5-0.3,0.7
		c-0.1,0.1-0.1,0-0.1-0.1c0-0.1,0-0.3-0.1-0.4c0.2-0.6,0.4-1.1,0.6-1.8c0-0.1,0-0.3,0.1-0.7c0.1-0.1,0.1-0.3,0.1-0.4
		c0-0.1,0.1-0.3,0.2-0.4c0.1-0.3,0.2-0.6,0.2-0.8c0-0.3,0.1-0.6,0.2-0.9c0.6-1.9,1-3.6,1.3-5.3c0.2-0.5,0.3-0.9,0.3-1.3
		c0.1-0.5,0.2-1,0.3-1.3l0-0.4c-0.1,0.1-0.2,0.3-0.4,0.3c-0.1,0.1-0.3,0.3-0.5,0.4l-0.3,0.3l0,0.1l-0.1,0l-0.1,0.1
		c0,0.1,0,0.1,0,0.2c0,0,0,0.1,0,0.2c-0.1,0.1-0.2,0.2-0.2,0.2c0,0.1-0.1,0.1-0.1,0.2c-0.1,0.1-0.2,0.3-0.3,0.5
		c-0.1,0.2-0.1,0.4-0.3,0.5c-0.2,0.2-0.3,0.4-0.4,0.5c-0.1,0.1-0.1,0.2-0.1,0.3c-0.1,0.1-0.1,0.1-0.1,0.2c0,0,0,0.1-0.1,0.2
		c-0.2,0.4-0.4,0.8-0.4,1c-0.1,0.1-0.1,0.1-0.1,0.2l-0.3,0.3c0,0.2,0,0.4-0.2,0.5c-0.1,0.2-0.2,0.4-0.2,0.6c0,0.2-0.1,0.4-0.2,0.6
		c0,0.2-0.1,0.4-0.2,0.6c-0.1,0.2-0.1,0.4-0.2,0.6l0,0.1c-0.2,0.5-0.3,1.1-0.5,1.6c-0.2,0.5-0.3,1.1-0.4,1.6
		c-0.1,0.3-0.2,0.7-0.2,1.2c-0.1,0.4-0.1,0.8-0.2,1.2c0,0.3-0.1,0.7-0.1,1c0,0.3-0.1,0.6-0.1,0.9c-0.1,0.3-0.2,0.7-0.2,1
		c0,0.3,0,0.6-0.1,1l0,0.6l0,0.5c0,0.2,0,0.3-0.1,0.3l0-0.3c-0.1,0-0.1,0-0.1,0.1l0,0.2c-0.1-0.1-0.1-0.2-0.1-0.4l0,0.4
		c0,0.1,0.1,0.3,0.1,0.4c-0.1,0.1-0.1,0-0.1-0.1l0,0.3c-0.1-0.1-0.1-0.1-0.1,0c0,0.1,0,0.2,0.1,0.3l-0.1-0.2l0.1,0.1l0,0.1
		c0.1,0.1,0,0.1-0.1,0.1l-0.2-0.2c0,0.1,0,0.1,0.1,0.1c0,0,0.1,0,0.1,0.1l0.1,0.1C182.6,167.4,182.6,167.5,182.5,167.5 M182.2,159.4
		c-0.1,0.4-0.2,0.8-0.2,1.2c0,0.4-0.1,0.8-0.1,1.1c0.1-0.4,0.1-0.8,0.1-1.1c0.1-0.2,0.1-0.4,0.1-0.7
		C182.1,159.7,182.2,159.5,182.2,159.4 M181.8,164.1c0-0.3,0-0.7,0-1.1c0-0.1,0-0.3,0-0.5c0-0.2,0-0.3,0-0.5c-0.1,0.2-0.1,0.6,0,1.1
		C181.8,163.4,181.8,163.7,181.8,164.1 M203.9,153c0.2-0.6,0.4-1.1,0.6-1.7c0.2-0.5,0.3-1,0.5-1.3c-0.3,0.7-0.5,1.6-0.8,2.6
		c-0.2,0.4-0.3,0.8-0.4,1.3c-0.1,0.4-0.3,0.9-0.4,1.3c-0.3,1-0.6,1.9-0.9,2.7c-0.4,0.9-0.7,1.8-1,2.6c-0.6,1.7-1.3,3.5-2.2,5.4
		c-0.3,0.8-0.7,1.7-1.3,2.6c-0.2,0.4-0.5,0.8-0.7,1.3c-0.2,0.4-0.5,0.8-0.7,1.2c0,0.1,0,0.1,0.1,0l0.3-0.3c-0.1,0.1-0.3,0.4-0.6,1
		c-0.3,0.4-0.5,0.7-0.6,1c0.2-0.2,0.3-0.4,0.5-0.7c0.1-0.2,0.3-0.5,0.5-0.8c0.1-0.3,0.3-0.5,0.4-0.8c0.2-0.2,0.3-0.5,0.4-0.7
		c-0.1,0.2-0.2,0.4-0.4,0.6c-0.2,0.2-0.3,0.5-0.4,0.7c-0.1,0.2-0.2,0.4-0.4,0.7c-0.1,0.2-0.3,0.5-0.5,0.7c-0.1,0.1-0.2,0.3-0.4,0.4
		c-0.1,0.1-0.2,0.3-0.4,0.4c-0.1,0.1-0.2,0.3-0.4,0.4c-0.1,0.1-0.3,0.2-0.5,0.4c-0.2,0.3-0.6,0.6-1.1,0.8c-0.1,0-0.1,0-0.1,0.1
		c0,0-0.1,0.1-0.2,0.1l-0.2,0l-0.1,0l-0.1,0c-0.1,0.1-0.3,0.1-0.4,0.1c-0.1,0-0.3,0-0.4,0c0.1,0,0.2,0,0.3,0c0,0,0.1,0,0.3,0l0.3,0
		c0.1,0,0.3-0.1,0.4-0.1c0.5,0,0.9-0.2,1.4-0.6l1.1-1c0.1-0.1,0.3-0.3,0.4-0.4c0.2-0.1,0.3-0.3,0.4-0.4c0.1-0.1,0.2-0.1,0.1,0
		c-0.1,0.1-0.1,0.3-0.3,0.4c-0.1,0.1-0.2,0.3-0.3,0.4c-0.1,0.1-0.2,0.3-0.2,0.4c-0.2,0.2-0.5,0.4-0.7,0.7c-0.2,0.2-0.5,0.4-0.8,0.6
		c-0.1,0.1-0.4,0.3-1,0.5l-0.3,0c-0.1,0-0.1,0-0.1,0.1c0,0-0.1,0.1-0.2,0.1l-0.1,0l-0.1,0l-0.2,0c-0.7,0.1-1.2,0-1.7-0.3
		c-0.6-0.2-1.1-0.5-1.6-1c-0.4-0.4-0.8-0.9-1-1.4c-0.2-0.2-0.3-0.5-0.5-0.9c-0.1,0.1-0.2,0.3-0.3,0.4c-0.1,0.1-0.2,0.3-0.3,0.4
		c-1,1.2-2.2,2.2-3.5,3c-0.4,0.2-0.8,0.3-1.1,0.5c-0.4,0.2-0.7,0.3-1.1,0.4c-0.1,0.1-0.3,0.1-0.5,0.1c-0.2,0-0.4,0.1-0.6,0.2l-0.3,0
		l-0.2,0l-0.6,0c-0.4,0-0.8-0.1-1.2-0.1c-0.4,0-0.8-0.1-1.1-0.2c-0.6-0.2-1.3-0.6-2-1c-0.9-0.7-1.4-1.2-1.8-1.8
		c-0.6-0.7-1-1.4-1.3-2.2c-0.3-0.8-0.6-1.6-0.7-2.4c-0.1-0.8-0.2-1.6-0.3-2.4c-0.1-1.6-0.1-3.2,0.2-4.7c0.1-1.4,0.4-2.9,0.8-4.4
		c0.2-0.8,0.4-1.5,0.6-2.2c0.2-0.7,0.5-1.4,0.7-2.1c0.9-2.8,2-5.4,3.5-7.8c0.4-0.6,0.8-1.2,1.2-1.8c0.4-0.6,0.8-1.1,1.3-1.7
		c0.2-0.4,0.5-0.6,0.7-0.9c0.2-0.2,0.4-0.5,0.7-0.8c0.1-0.1,0.2-0.2,0.5-0.3l0.2-0.2l0.2-0.1c0.2-0.3,0.5-0.5,0.8-0.7l0.2-0.2
		l0.2-0.1c0.1-0.1,0.2-0.1,0.2-0.2c0,0,0.1-0.1,0.2-0.2l0.1,0l0.1-0.1l0.2-0.1c0.1-0.1,0.2-0.1,0.2-0.1c0,0,0.1,0,0.2-0.1
		c0.6-0.3,1.2-0.6,1.9-0.8c1.3-0.5,2.6-0.7,4-0.6c0.1,0,0.1,0,0.2,0c0.1,0,0.2,0,0.3,0l0.1,0l0.1,0.1l0.2,0c0.1,0,0.2,0,0.3,0.1
		l0.1,0l0.2,0l0.1,0.1l0.1,0c0,0.1,0.1,0.1,0.2,0.1c0.7,0.3,1.4,0.7,2.1,1.2c0.6,0.6,1,1.2,1.3,2c0.2,0.4,0.3,0.8,0.4,1.1
		c0.1,0.4,0.2,0.7,0.3,1.1c0.1,0.5,0.2,0.9,0.2,1.3c0,0.4,0,0.9,0.1,1.3c0,0.5-0.1,0.9-0.1,1.4c0,0.4-0.1,0.9-0.1,1.4
		c-0.1,0.1-0.1,0.2-0.1,0.3c0,0.1,0,0.2-0.1,0.3l-0.1,0.2l0.1-0.1l-0.1,0.1l-0.1,0.3c-0.1,0.2-0.1,0.4,0,0.6c0,0.2,0,0.4-0.1,0.6
		c0,0.4-0.1,0.8-0.1,1.2c-0.1,0.4-0.1,0.8-0.1,1.2c-0.1,0.8-0.2,1.6-0.3,2.4c-0.1,0.8-0.2,1.6-0.3,2.3c-0.1,0.8-0.1,1.6-0.1,2.4
		c0,0.8-0.1,1.6-0.2,2.3c-0.1,0.7-0.1,1.3,0,1.9c0.1,0.6,0.1,1.2,0.1,1.8c0,0.3,0.1,0.6,0.1,0.8c0.1,0.2,0.1,0.5,0.1,0.7
		c0.1,0.1,0.1,0.1,0.1,0.2c0.1,0,0.1,0,0.1-0.1c0,0,0-0.1,0.1-0.1c0.4-0.4,0.6-0.8,0.8-1.1c0.2-0.4,0.5-0.7,0.8-1.1
		c0.3-0.4,0.5-0.8,0.7-1.1c0.5-0.8,1-1.7,1.5-2.6c0.2-0.4,0.4-0.8,0.6-1.3c0.2-0.4,0.4-0.9,0.6-1.4c0.2-0.6,0.4-0.9,0.5-1.1
		c0.1-0.2,0.3-0.5,0.4-0.8c0.1-0.2,0.1-0.2,0.1,0c-0.1,0.2-0.1,0.3-0.1,0.2c0.3-0.6,0.5-1.1,0.8-1.7c0.2-0.6,0.4-0.9,0.5-0.9
		c-0.1,0.3-0.2,0.5-0.2,0.5c0,0.1-0.1,0.3-0.3,0.6c0,0.2,0,0.1,0.2-0.3c0.2-0.4,0.3-0.6,0.4-0.6c-0.1,0.2-0.2,0.4-0.3,0.7
		c-0.1,0.2-0.2,0.5-0.3,0.9c0.3-0.6,0.5-1.1,0.6-1.3c0.1-0.2,0.3-0.7,0.6-1.3c0.1-0.1,0,0-0.1,0.3c0.1-0.1,0.3-0.5,0.4-1
		c-0.1,0.3-0.1,0.4,0,0.2c0.1-0.2,0.3-0.5,0.4-0.8c0,0.1,0,0.2-0.1,0.3c-0.1,0.1-0.2,0.3-0.2,0.4l0.4-1l0.1,0c0.2-0.8,0.5-1.7,1-2.5
		l0.2-0.2l0.3,0.1l-0.2,0.6c-0.1,0.2-0.2,0.5-0.3,0.8c-0.1,0.3-0.2,0.7-0.3,1c0.1-0.3,0.2-0.6,0.3-0.9c0.1-0.3,0.3-0.8,0.6-1.4
		c-0.2,0.3-0.4,0.8-0.6,1.5c-0.2,0.6-0.5,1.2-0.8,1.8c-0.1,0.2-0.1,0.4-0.2,0.6c-0.1,0.2-0.1,0.4-0.2,0.6c0.2-0.6,0.5-1.1,0.7-1.6
		c0.3-0.5,0.5-1.1,0.8-1.9c-0.1,0.3-0.3,0.8-0.6,1.5c-0.3,0.7-0.5,1.3-0.7,1.8c0.1-0.1,0.2-0.1,0.1,0c-0.1,0.1,0,0,0.2-0.5
		c0,0.1,0,0.2-0.1,0.3c-0.1,0.1-0.1,0.3-0.2,0.4l0.1-0.2c0.1-0.1,0.1-0.1,0.1-0.2c0-0.1,0-0.2,0.1-0.3c0.1-0.2,0.2-0.4,0.3-0.6
		c0.1-0.2,0.2-0.4,0.3-0.5c-0.2,0.3-0.4,0.8-0.6,1.4c-0.2,0.6-0.4,1-0.5,1.3c0.1-0.1,0.1-0.2,0.1-0.2c0,0,0.1-0.2,0.3-0.6
		c-0.1,0.3-0.2,0.5-0.3,0.7c-0.1,0.2-0.2,0.5-0.3,0.8c-0.1,0.3-0.2,0.6-0.3,0.9c-0.1,0.2-0.2,0.4-0.3,0.6c-0.1,0.2-0.2,0.5-0.4,0.9
		c-0.1,0.4-0.3,0.7-0.4,1.1c0.1-0.1,0.1-0.3,0.2-0.6c0.1-0.3,0.2-0.5,0.3-0.6c0.1-0.1,0.1-0.1,0,0c-0.1,0.1-0.2,0.5-0.4,1.1
		c-0.1,0.1,0,0,0.1-0.4c0.1-0.3,0.2-0.4,0.1-0.4c-0.1,0.1-0.2,0.3-0.3,0.6c0,0.2-0.1,0.4-0.3,0.6c0,0.2-0.1,0.3,0,0.3c0,0,0,0,0,0.2
		c-0.3,0.4-0.6,1-0.8,1.7c0-0.1,0,0,0,0.1c0,0.1-0.1,0.4-0.3,0.8l0.2-0.3c0,0.1,0,0.1,0.1,0c0-0.1,0.1-0.3,0.3-0.6
		c-0.2,0.6-0.5,1.1-0.8,1.6c-0.3,0.5-0.6,1.1-0.9,1.7c-0.1,0.1-0.1,0.2,0,0.1c0-0.1,0.1-0.2,0.1-0.3c0.2-0.2,0.3-0.4,0.3-0.4
		c-0.1,0.3-0.3,0.6-0.4,0.8c-0.2,0.3-0.3,0.6-0.4,0.8c-0.1,0.3-0.2,0.5-0.3,0.6c-0.1,0.1-0.1,0.1,0-0.1c-0.1,0.1-0.2,0.3-0.4,0.6
		c-0.1,0.2-0.3,0.5-0.6,0.9l-0.3,0.6l-0.2,0.4c-0.8,1.3-1.6,2.4-2.3,3.3c-0.7,0.8-1.5,1.3-2.2,1.4c-1.1,0.1-1.9-0.2-2.5-0.9
		c-0.6-0.7-1.1-1.5-1.4-2.6l0,0.1c0.1,0.2,0.1,0.4,0.2,0.6c0,0.2,0.1,0.4,0.2,0.6c0.2,0.5,0.4,0.8,0.7,1c0.2,0.3,0.4,0.5,0.8,0.8
		c0.2,0.2,0.4,0.3,0.7,0.3c0.4,0.1,0.7,0.1,0.9,0.1l0.4,0l0.5,0c0.3-0.1,0.5-0.2,0.8-0.5c0.5-0.3,0.9-0.6,1-0.8
		c-0.1,0.1-0.3,0.4-0.6,0.7c-0.1,0.1-0.2,0.2-0.5,0.3c-0.2,0.2-0.4,0.4-0.7,0.5c0.3-0.2,0.5-0.3,0.7-0.4c0.1-0.1,0.2-0.2,0.3-0.2
		c0.1-0.1,0.2-0.1,0.3-0.2c0.2-0.1,0.4-0.3,0.5-0.5c0.2-0.2,0.3-0.3,0.4-0.5c0.2-0.1,0.4-0.3,0.5-0.6c0.1-0.1,0.2-0.3,0.3-0.4
		c0.1-0.1,0.2-0.3,0.3-0.4c0.2-0.4,0.4-0.7,0.6-1c0.2-0.3,0.3-0.6,0.4-0.8c0.6-1.1,1.2-2.1,1.6-3.2c0.3-0.6,0.5-1.1,0.8-1.6
		c0.2-0.5,0.5-1.1,0.8-1.6c0,0.1,0,0.2-0.1,0.4c-0.1,0.2-0.2,0.4-0.3,0.6c-0.2,0.5-0.3,0.7-0.2,0.7c0.1-0.3,0.2-0.6,0.4-1
		c0.2-0.4,0.3-0.7,0.4-1.1c0.3-0.8,0.6-1.3,0.7-1.7c-0.1,0.3-0.2,0.6-0.3,0.8c-0.1,0.3-0.2,0.6-0.3,0.9c0.1-0.3,0.2-0.6,0.4-1.1
		c0.2-0.5,0.4-0.9,0.6-1.5c0.2-0.6,0.4-1.1,0.6-1.6c0.2-0.5,0.3-0.9,0.4-1.2c-0.3,1-0.7,2-1.1,3c-0.4,1-0.8,2.1-1.2,3.3
		c-0.2,0.6-0.4,1.1-0.7,1.7c-0.2,0.6-0.5,1.1-0.8,1.7c-0.3,0.6-0.6,1.1-0.9,1.7c-0.3,0.6-0.6,1.1-0.9,1.7c-0.2,0.4-0.3,0.6-0.5,0.9
		c-0.2,0.2-0.4,0.5-0.5,0.8c-0.2,0.3-0.4,0.5-0.5,0.8c-0.2,0.3-0.4,0.5-0.7,0.8c-0.1,0.1-0.4,0.4-0.7,0.7c-0.2,0.2-0.5,0.4-0.8,0.7
		c-0.1,0-0.2,0-0.2,0.1c0,0-0.1,0.1-0.2,0.1c-0.1,0.1-0.2,0.1-0.3,0.1l-0.2,0l-0.1,0c-0.5,0-0.8,0-1,0c-0.3,0-0.6-0.2-1-0.4
		c-0.4-0.2-0.7-0.4-1-0.6c-0.4-0.5-0.8-1.1-1.2-1.8c-0.2-0.3-0.2-0.4-0.3-0.6l-0.1,0c0.3,0.6,0.6,1.3,1.1,1.8
		c0.1,0.1,0.3,0.2,0.3,0.4c0.1,0.1,0.2,0.3,0.3,0.4c0.1,0.2,0.4,0.4,0.9,0.6c0.3,0.1,0.5,0.2,0.7,0.2c0.3,0.1,0.6,0.2,0.9,0.1l0.3,0
		l0.1,0l0.1,0l0.1,0c0.1,0,0.2,0,0.3-0.1c0.1,0,0.2-0.1,0.3-0.1c0.4-0.2,0.8-0.4,1.1-0.8c0.7-0.5,1.3-1.3,1.9-2.2
		c0.6-0.9,1.1-1.7,1.5-2.5c0.7-1.3,1.3-2.6,2-4c0.6-1.4,1.2-2.8,1.7-4.2c0.5-1.5,1-2.8,1.5-4.1C203.1,155.3,203.5,154.1,203.9,153"
		/>
	<path d="M227.2,163.3c-0.2,0.4-0.5,0.8-0.7,1.2c-0.2,0.4-0.5,0.7-0.7,1.1c0.3-0.4,0.6-0.8,0.9-1.2c0.3-0.5,0.5-0.9,0.8-1.3
		c0.3-0.5,0.6-1,0.8-1.4c0.2-0.4,0.4-0.8,0.5-1.1c-0.3,0.6-0.5,1.2-0.8,1.6C227.8,162.5,227.5,162.9,227.2,163.3 M220.6,166.9
		c-0.2-0.6-0.4-1.1-0.4-1.6C220.2,166,220.4,166.5,220.6,166.9c0.1,0.1,0.1,0.2,0.2,0.3c0,0.1,0.1,0.2,0.3,0.3
		c0.1,0.1,0.2,0.2,0.3,0.2c0.1,0,0.1,0,0.1,0.1l0.1,0c0.1,0,0.1,0,0.2,0.1c0.5,0,1.1-0.2,1.6-0.4c0.2-0.2,0.4-0.3,0.7-0.5
		c0.3-0.2,0.5-0.3,0.7-0.5c-0.1,0.1-0.3,0.3-0.5,0.4c-0.2,0.1-0.5,0.3-0.7,0.4c-0.1,0.1-0.4,0.2-0.8,0.4c-0.1,0.1-0.4,0.1-0.8,0.2
		l-0.4-0.2c-0.1,0-0.3,0-0.4-0.2c-0.1-0.1-0.2-0.2-0.3-0.3C220.7,167.2,220.7,167.1,220.6,166.9 M212.5,142.8
		c0.1,0.1,0.4,0.2,0.7,0.1c0.2,0,0.4,0,0.7,0c0.3,0,0.5,0,0.6,0l0.2,0.1l-1-0.1c-0.5,0-1,0-1.4-0.2L212.5,142.8z M234.4,147.1
		l-0.1,0.2c-0.1,0.9-0.3,1.7-0.5,2.6c-0.2,0.8-0.4,1.7-0.6,2.6c-0.3,1-0.5,1.9-0.8,2.8c-0.3,0.9-0.6,1.8-0.8,2.6
		c-0.2,0.5-0.3,0.9-0.5,1.4c-0.2,0.5-0.4,0.9-0.6,1.3c-0.1,0.5-0.3,0.9-0.5,1.3c-0.2,0.4-0.4,0.8-0.6,1.3c-0.8,1.7-1.8,3.4-2.9,5
		l0.1-0.1c0.2-0.2,0.3-0.4,0.3-0.4c-0.1,0.3-0.3,0.7-0.6,1.1c-0.2,0.2-0.4,0.3-0.5,0.5c-0.2,0.2-0.3,0.3-0.4,0.4
		c0.2-0.1,0.4-0.4,0.7-0.6c0.3-0.3,0.5-0.5,0.6-0.8c0.3-0.6,0.6-1,1-1.4c-0.3,0.4-0.6,0.9-0.9,1.3c-0.3,0.4-0.7,0.9-1.2,1.5
		c-0.2,0.2-0.4,0.4-0.6,0.7c-0.2,0.2-0.5,0.5-0.8,0.8c-0.3,0.2-0.7,0.5-1.1,0.8c-0.4,0.3-0.9,0.5-1.3,0.7c0.4-0.2,0.7-0.3,1-0.5
		c0.6-0.3,1.1-0.6,1.3-0.7c0.3-0.4,0.6-0.7,0.9-1c0.3-0.3,0.6-0.6,0.9-0.8c0.1-0.1,0.1-0.2,0-0.1c0,0.1-0.1,0.2-0.2,0.4
		c-0.2,0.2-0.4,0.5-0.5,0.8c-0.4,0.4-0.9,0.8-1.4,1.2c-0.5,0.4-0.9,0.7-1.3,0.9c-0.8,0.5-1.8,0.8-3,1.1l-0.2,0c-0.1,0-0.1,0-0.2,0.1
		l-0.2,0c-0.2-0.1-0.4-0.1-0.7,0c-0.3,0-0.7-0.1-1.4-0.2c-0.3-0.1-0.5-0.2-0.7-0.3c-0.2-0.1-0.5-0.3-0.8-0.4
		c-0.3-0.1-0.5-0.3-0.6-0.5c-0.1-0.2-0.3-0.4-0.4-0.6c-0.5-0.4-0.9-0.8-1.1-1.3c-0.2-0.4-0.5-0.9-0.7-1.4c-0.2-0.5-0.3-1-0.4-1.5
		c-0.1-0.5-0.2-1-0.3-1.5c0-0.3-0.1-0.7-0.1-1c0-0.4-0.1-0.7-0.2-1c0.1-0.3,0.1-0.7,0.1-1.1c-0.1-0.4-0.1-0.7-0.1-1
		c0-0.4,0-0.8,0.1-1.2c0-0.4,0-0.7,0.1-1.1c0-0.1,0-0.3,0-0.5c0-0.2,0-0.4,0-0.6l0-0.5l0-0.1l0-0.1l0-0.1l0.1-0.2
		c0.1-0.7,0.2-1.5,0.3-2.1c0-0.7,0.1-1.4,0.3-2.1c0-0.3,0.1-0.5,0.1-0.8c0-0.2,0.1-0.5,0.2-0.9c-0.1,0.1-0.2,0.1-0.3,0.1
		c-0.1,0-0.2,0.1-0.3,0.1c-1.3,0.3-2.5,0.5-3.6,0.5c-0.6,0.1-1.2,0-1.8-0.1c-0.3-0.1-0.7-0.2-0.9-0.3c-0.3-0.1-0.6-0.2-0.9-0.3
		c-0.3-0.1-0.7-0.3-1-0.5c-0.3-0.2-0.6-0.5-0.7-0.8c-0.4-0.7-0.6-1.3-0.8-1.9c-0.4-0.5-0.5-1.2-0.5-2.1c0-0.3,0-0.6,0-0.9
		c0-0.3,0-0.6,0.1-0.9c0.1-0.7,0.2-1.3,0.3-1.9c0.1-0.6,0.3-1.2,0.5-1.7c0.1-0.1,0.1-0.3,0.1-0.5l0.1-0.1l0-0.1l0.2-0.1
		c0.1-0.2,0.2-0.4,0.3-0.5c0.1-0.1,0.1-0.3,0.2-0.4l0.1-0.2l0.1-0.2l0.3-0.3c0.1-0.1,0.2-0.3,0.2-0.4c0-0.1,0.1-0.3,0.2-0.4
		c0.3-0.4,0.6-0.6,0.8-0.9c0.2-0.2,0.5-0.5,0.8-0.8c0.1-0.1,0.3-0.2,0.4-0.3c0.2,0,0.3-0.1,0.4-0.2c0.2-0.2,0.6-0.4,1.1-0.4l0.1,0
		l0.2,0c0.2,0,0.3,0,0.4,0.1c0.3,0,0.6,0.1,0.8,0.2c0.2,0.1,0.5,0.3,0.8,0.6c0.3,0.2,0.4,0.4,0.3,0.8c0,0.1,0,0.2,0.1,0.3
		c0,0.1,0.1,0.2,0.1,0.3l0,0.1l0,0.2l-0.1,0.1l0,0.2l0,0.1l0,0.2l0,0.3c-0.1,0.5,0,1,0.3,1.3c0.2,0.4,0.5,0.7,0.8,0.9
		c0.5,0.5,1.3,0.9,2.4,1.1c0.4,0,0.8-0.1,1.2-0.1c0.4,0,0.9,0,1.4-0.1c0.1-0.1,0.3-0.3,0.6-0.5c0.1-0.1,0.3-0.3,0.5-0.4
		c0.2-0.1,0.4-0.3,0.6-0.4c0.2-0.1,0.4-0.3,0.5-0.3c0.2-0.1,0.4-0.1,0.6-0.2c0.4-0.2,0.8-0.2,1.3-0.1c0.1,0.1,0.2,0.1,0.3,0.1
		c0.1,0,0.1,0,0.2,0.1l0.1,0l0.1,0.1l0.1,0l0.4,0.2c0.3,0.1,0.6,0.3,0.8,0.5c0.1,0.1,0.3,0.3,0.5,0.4c0.2,0.2,0.3,0.3,0.4,0.5
		c0.2,0.2,0.4,0.5,0.7,1c0.1,0.3,0.2,0.6,0.2,0.8c0.1,0.2,0.1,0.5,0,0.9c0,0.3-0.1,0.5,0,0.8c0,0.2,0,0.5,0,0.9
		c-0.1,0.5-0.2,1.1-0.3,1.6c-0.1,0.5-0.3,1-0.4,1.6c-0.1,0.4-0.1,0.6-0.1,0.7c-0.1,0.1-0.1,0.2-0.1,0.3c0,0.1-0.1,0.2-0.1,0.3
		c-0.1,0.1-0.1,0.3-0.2,0.4c-0.1,0.1-0.1,0.3-0.3,0.4l0,0.3l-0.1,0.4c-0.1,0.5-0.2,1-0.4,1.5c-0.2,0.5-0.3,1-0.4,1.5l0.1-0.1
		l-0.1,0.1c-0.1,0.6-0.3,1.2-0.4,1.8c-0.1,0.6-0.2,1.1-0.3,1.7c-0.1,0.6-0.2,1.2-0.2,1.8c-0.1,0.6-0.1,1.2-0.2,1.7
		c0,0.3-0.1,0.7-0.1,1c0,0.3,0,0.6,0,0.9c0,0.3,0,0.6,0,0.9s0.1,0.6,0.2,0.9c0,0.3,0.1,0.5,0.2,0.7c0.1,0.2,0.2,0.4,0.4,0.5l0,0.1
		l0.1,0l0.1,0.1l0.2,0.1c0.3,0,0.6-0.1,0.7-0.2c0.3-0.1,0.5-0.2,0.7-0.3c0.2-0.1,0.5-0.2,0.7-0.4c0.4-0.3,0.8-0.7,1.3-1.1
		c0.3-0.4,0.6-0.7,0.8-1.1c0.2-0.4,0.5-0.8,0.8-1.2c0.3-0.4,0.6-0.8,0.8-1.2c0.2-0.5,0.5-0.9,0.8-1.4c0.2-0.5,0.4-0.9,0.6-1.4
		c0.2-0.4,0.4-0.9,0.5-1.3c0.3-0.6,0.5-1,0.5-1.2c0-0.3,0.2-0.5,0.3-0.8c0.1-0.1,0.1-0.2,0-0.2c0,0,0,0,0,0.1
		c-0.1,0.1-0.1,0.2-0.1,0.3c0.3-0.7,0.5-1.3,0.6-1.9c0.2-0.5,0.3-0.9,0.3-1c0,0.2-0.1,0.4-0.1,0.5c0,0.1,0,0.3-0.1,0.7
		c-0.1,0.1-0.1,0.2,0,0.1c0-0.1,0.1-0.2,0.1-0.4l0.1-0.6c-0.1,0.1-0.1,0.3-0.1,0.6c0,0.3-0.1,0.6-0.2,0.9c0.1-0.3,0.2-0.6,0.2-0.8
		c0-0.2,0.1-0.4,0-0.6c0.1-0.1,0.2-0.3,0.4-0.6c0.1-0.2,0.2-0.5,0.3-0.9l-0.2,0.4c0.1-0.1,0.1-0.3,0.1-0.5c0-0.2,0.1-0.4,0.2-0.7
		c-0.1,0.3-0.1,0.4,0,0.1c0.1-0.3,0.2-0.5,0.3-0.8c-0.2,0.2-0.3,0.4-0.2,0.7l0-0.1c0-0.1,0-0.2,0-0.3c0,0,0-0.1,0-0.3
		c0.2-0.3,0.4-0.5,0.4-0.5c0.1-0.3,0.1-0.2-0.1,0.2c-0.2,0.4-0.3,0.7-0.3,1c0.1-0.1,0.1-0.3,0.2-0.6c0.1-0.3,0.2-0.5,0.2-0.6l0-0.1
		c0.1-0.3,0.2-0.7,0.3-1.2c0.1-0.4,0.2-0.9,0.3-1.4l0.9-0.1c-1.1,4.5-2.4,8.5-3.8,12.1c-0.6,1.5-1.3,3-2.1,4.4
		c-0.8,1.4-1.7,2.8-2.6,3.9c-1,1.2-2,2.2-3.1,2.9c-1.1,0.8-2.3,1.2-3.6,1.3c-1.2,0.1-2.2-0.1-3-0.7c-0.8-0.6-1.5-1.4-2-2.5
		c0.1,0.1,0.1,0.1,0.1,0.2c0,0.1,0,0.2,0.1,0.3c0.1,0.2,0.3,0.4,0.4,0.7c0.1,0.3,0.2,0.5,0.5,0.8l0.8,0.6c0.4,0.3,0.8,0.5,1,0.5
		c0.5,0.3,1.1,0.4,1.8,0.3c0.2,0.1,0.6,0.1,1.2-0.1c0.3-0.1,0.6-0.2,0.9-0.3c0.3-0.1,0.6-0.2,0.9-0.4c0.3-0.2,0.6-0.3,0.8-0.5
		c0.2-0.2,0.5-0.3,0.7-0.5c0.2-0.1,0.4-0.3,0.5-0.4c0.2-0.1,0.3-0.2,0.4-0.4c-0.1,0.3-0.3,0.5-0.6,0.5c-0.1,0.1-0.3,0.3-0.4,0.4
		c-0.2,0.1-0.4,0.3-0.6,0.5c0.1-0.1,0.3-0.3,0.5-0.4c0.2-0.2,0.4-0.3,0.6-0.5c0.2-0.1,0.3-0.3,0.5-0.4c0.1-0.1,0.2-0.3,0.4-0.4
		c0.2-0.1,0.4-0.4,0.8-0.6c0.3-0.3,0.5-0.6,0.6-0.9c0.3-0.4,0.6-0.7,0.8-1c0.2-0.3,0.4-0.6,0.6-0.8c0.4-0.6,0.7-1.1,1-1.6
		c0.3-0.5,0.6-1.1,0.9-1.6c0.3-0.6,0.5-1.1,0.8-1.7c0.2-0.6,0.4-1.1,0.7-1.7c0,0.1,0,0.2-0.1,0.4c-0.1,0.2-0.2,0.4-0.2,0.6
		c-0.1,0.1-0.1,0.1-0.1,0.2c0,0.1-0.1,0.2-0.2,0.3c0,0.1,0,0.1,0,0.1c0,0,0,0,0,0.1l0,0.1c0.2-0.3,0.3-0.7,0.4-1.1
		c0.1-0.4,0.3-0.8,0.5-1.2c0.2-0.4,0.3-0.7,0.4-1c0.1-0.3,0.2-0.5,0.3-0.7c-0.2,0.4-0.5,1-0.7,1.8c0.1-0.3,0.2-0.7,0.4-1.1
		c0.2-0.5,0.3-1,0.4-1.5c0.2-0.6,0.4-1.1,0.6-1.6c0.2-0.5,0.3-0.9,0.4-1.3c-0.3,1-0.6,2.1-0.9,3.1c-0.3,1.1-0.8,2.2-1.3,3.4
		c-0.1,0.6-0.4,1.2-0.6,1.8c-0.3,0.6-0.5,1.1-0.8,1.7c-0.4,1.2-1.1,2.4-2.1,3.6c-0.4,0.6-0.8,1.1-1.2,1.7c-0.5,0.5-0.9,1-1.4,1.5
		c-0.2,0.2-0.5,0.5-0.7,0.7c-0.2,0.3-0.5,0.5-0.9,0.6c-0.4,0.2-0.7,0.3-1.1,0.5c-0.3,0.2-0.6,0.3-1,0.4c-0.5,0.2-0.8,0.3-1,0.3
		c-0.1,0.1-0.3,0.1-0.6,0.2l-0.4,0c-0.3,0-0.7,0-1.1,0c-0.4,0-0.7-0.1-1.1-0.2c-0.3-0.2-0.5-0.4-0.7-0.5c-0.2-0.2-0.5-0.4-0.9-0.6
		c-0.6-0.5-1-1.1-1-1.6c-0.1,0.2,0,0.6,0.4,1.1c0.2,0.2,0.4,0.4,0.7,0.6c0.2,0.2,0.5,0.5,0.9,0.6c0.2,0.3,0.5,0.4,0.9,0.5
		c0.5,0.1,1,0.2,1.3,0.2c0.1,0,0.3,0,0.6,0c0.2,0,0.5,0,0.6-0.1c0.2,0,0.4,0,0.5-0.1c0.2,0,0.3-0.1,0.5-0.1c0.1-0.1,0.3-0.1,0.6-0.2
		c0.3-0.1,0.5-0.2,0.8-0.3c0.9-0.4,1.7-0.9,2.3-1.5c0.6-0.5,1.3-1.2,2.1-2.1c0.2-0.4,0.5-0.7,0.8-1.2c0.3-0.4,0.6-0.9,0.9-1.3
		c0.8-1.3,1.4-2.7,2-4.2c0.6-1.5,1.2-2.9,1.8-4.4c0.5-1.4,1-2.9,1.3-4.2c0.4-1.4,0.7-2.6,1-3.8c0-0.3,0-0.7,0.1-1.1
		c0.1-0.4,0.2-0.7,0.3-1.1L234.4,147.1z"/>
	<path d="M244.1,118.9l0.2,0.1l-0.3-0.3l-0.1-0.1C244,118.7,244.1,118.8,244.1,118.9 M243.9,157.4c0.1-0.1,0.2-0.3,0.2-0.4
		c0-0.1,0.1-0.2,0.2-0.4l0-0.1c-0.1,0.1-0.2,0.3-0.3,0.5c-0.1,0.2-0.1,0.3-0.3,0.5c0,0.1,0,0.1,0,0.1c0,0,0,0,0,0.1
		c0.1-0.1,0.1-0.1,0.1-0.2C243.8,157.5,243.8,157.5,243.9,157.4 M244.4,126.4c-0.1,0.1-0.2,0.3-0.2,0.4c0,0.1-0.1,0.2-0.2,0.4
		c-0.1,0.1-0.1,0.2-0.2,0.3c-0.1,0.1-0.2,0.2-0.2,0.2c0.2-0.1,0.4-0.3,0.5-0.5C244.2,126.9,244.3,126.6,244.4,126.4 M243.7,157.7
		c-0.2,0.4-0.4,0.7-0.6,0.9c-0.1,0.2-0.3,0.5-0.6,0.8c0.2-0.2,0.4-0.5,0.5-0.8C243.3,158.4,243.5,158.1,243.7,157.7
		c-0.2,0.2-0.3,0.5-0.4,0.7l-0.1,0.1c0.4-0.5,0.7-1,0.9-1.6l0.3-0.3c0.1-0.4,0.3-0.8,0.6-1.3c-0.3,0.4-0.5,0.8-0.6,1.2
		c0-0.1,0-0.1-0.1,0c-0.1,0.1-0.1,0.3-0.2,0.4c-0.1,0.1-0.1,0.3-0.3,0.5c0,0.1,0,0.1,0,0.1C243.7,157.6,243.7,157.7,243.7,157.7
		 M243,128.4c-0.3,0.2-0.4,0.3-0.6,0.4c0.4-0.3,0.6-0.5,0.7-0.6c0.1,0,0.3-0.1,0.4-0.3c-0.1,0.1-0.2,0.2-0.3,0.3
		C243.1,128.3,243.1,128.3,243,128.4 M241.9,160.3c-0.1,0.2-0.3,0.5-0.5,0.7c-0.2,0.3-0.5,0.6-0.7,0.9
		C241.2,161.4,241.6,160.9,241.9,160.3 M239.8,134.5c0.1,0.1,0.2,0.1,0.5,0.3l0.2,0.4c0.3,0.3,0.5,0.6,0.5,0.8l0-0.2
		c-0.1-0.1-0.3-0.2-0.3-0.4l-0.4-0.6C239.9,134.5,239.7,134.4,239.8,134.5 M235.7,127.7c0-0.1,0-0.3-0.1-0.4c0-0.1,0-0.3,0-0.4
		c0-0.2,0-0.4,0-0.7c0-0.2,0-0.5,0-0.7c0-0.1,0-0.2,0-0.4c0-0.1,0-0.2,0-0.4l0-0.3l0-0.2l0-0.1l0.1,0l0-0.2l0.1-0.2
		c0-0.2,0.1-0.4,0-0.6c0-0.2,0-0.4,0.2-0.5c0-0.3,0.1-0.5,0.2-0.7c0.1-0.2,0.2-0.4,0.2-0.6c0.2-0.4,0.3-0.8,0.5-1.1
		c0.1-0.3,0.4-0.7,0.7-1.1c0.2-0.4,0.5-0.7,0.7-1c0.2-0.3,0.5-0.6,0.8-0.8c0.6-0.5,1.2-0.8,1.8-1l0.1,0c0.1-0.1,0.4-0.1,0.7-0.2
		l0.1,0c0.5,0,0.9,0,1.3,0.2c0.6,0.2,1.1,0.5,1.5,0.9c0.4,0.4,0.8,0.8,1,1.4c0,0.2,0.1,0.4,0.2,0.6c0.1,0.2,0.2,0.4,0.2,0.5
		c0,0.1,0,0.2-0.1,0.3l0.1,0.1l0,0.1l0,0.5c0,0.4,0.1,0.8,0.1,1.2c0,0.4,0,0.9-0.1,1.3c-0.1,0.9-0.3,1.9-0.6,2.8
		c-0.2,0.6-0.5,1.3-0.9,1.9c-0.4,0.6-0.7,1-1,1.2c-0.5,0.4-0.9,0.6-1.1,0.7l-0.4,0.2c0.1,0,0.1,0,0-0.1c-0.1,0.1-0.2,0.2-0.3,0.3
		c-0.1,0-0.2,0-0.2-0.1l0.2-0.1c0-0.1,0-0.1-0.1,0c-0.1,0.1-0.1,0.1-0.1,0c0-0.1,0.1-0.1,0.2-0.1l-0.5,0l0.1,0l-0.2,0l-0.2,0l0.1,0
		l-0.1,0l-0.1,0c-0.1,0,0-0.1,0.2-0.3c-0.1,0-0.1,0-0.2,0.1l-0.1,0l-0.4,0.2c-0.8,0.3-1.5,0.3-1.9,0.1c-0.5-0.2-0.8-0.6-1-1.2
		c-0.2-0.6-0.4-1.2-0.4-1.9c-0.1-0.7-0.1-1.4,0-2.1c-0.1,0-0.1,0-0.1,0.1c-0.1,0.1-0.1,0.2-0.1,0.4c0,0.1,0,0.3,0,0.5
		c0,0.2,0,0.4,0,0.5c0,0.1,0,0.2,0,0.3c0,0.2,0,0.3-0.1,0.5c0,0.1,0,0.3,0.1,0.4c0,0.1,0,0.3,0,0.4c0-0.1,0-0.1-0.1-0.2
		c0-0.1-0.1-0.2-0.1-0.3l0,0.6c0,0.1,0,0.2,0.1,0.3c0,0.1,0.1,0.2,0.1,0.3c0.2,0.2,0.2,0.3,0.1,0.4c0.1,0.1,0.2,0.3,0.2,0.4
		c0.1,0.1,0.2,0.3,0.2,0.4c0.2,0.3,0.3,0.5,0.4,0.6l-0.2-0.1l-0.1,0c0.1,0,0.2,0.1,0.4,0.3c0,0.1,0.1,0.1,0.2,0.1
		c0.1,0,0.1,0,0.1,0.1l-0.4-0.2c0.1,0.1,0.3,0.2,0.3,0.2c0.1,0,0.1,0.1,0.2,0.1c0.1,0.1,0.3,0.1,0.6,0l-0.6,0.1
		c-0.1-0.1-0.3-0.1-0.4-0.2c-0.1-0.1-0.2-0.1-0.4-0.3c-0.1-0.1-0.3-0.2-0.3-0.3c-0.1-0.1-0.2-0.2-0.2-0.4c-0.1-0.1-0.3-0.2-0.3-0.4
		c-0.1-0.1-0.2-0.3-0.2-0.5c-0.1-0.3-0.2-0.7-0.2-1c0-0.3-0.1-0.7-0.1-1c0-0.3,0-0.7,0-1c0-0.3,0-0.7,0-1c-0.1,0.1-0.1,0.3,0,0.7
		c-0.1,0.2-0.1,0.4,0,0.6c0,0.2,0.1,0.4,0.1,0.6c-0.1,0.2,0,0.5,0.1,1c0,0.2,0.1,0.4,0.1,0.6c0.1,0.2,0.1,0.5,0.1,0.8
		c0.1,0.1,0.3,0.3,0.3,0.5c0.1,0.2,0.2,0.4,0.3,0.5c0.1,0.1,0.3,0.2,0.4,0.4c0.1,0.1,0.3,0.2,0.4,0.3c0.2,0.1,0.4,0.1,0.5,0.1
		c0.1,0,0.3,0,0.4,0l0.8-0.1c0.1,0,0.2,0,0.3-0.1c0.1,0,0.2-0.1,0.2-0.1c-0.1,0.1-0.3,0.1-0.5,0.2c-0.2,0.1-0.4,0.1-0.5,0.2
		c-0.5,0-0.9,0-1.3-0.2c-0.3-0.1-0.5-0.2-0.5-0.3c-0.3-0.2-0.5-0.4-0.5-0.6c-0.2-0.3-0.3-0.5-0.4-0.7c-0.1-0.2-0.2-0.5-0.3-0.7
		l-0.1,0.1l0,0.1l0-0.3c0-0.1,0-0.1-0.1-0.1c0,0-0.1-0.1-0.1-0.1c0.1,0.1,0.1,0.3,0.1,0.4c0,0.2,0.1,0.3,0.1,0.4
		c-0.1-0.1-0.1-0.3-0.1-0.4c0-0.1-0.1-0.3-0.1-0.4c-0.1-0.1-0.1-0.3-0.1-0.5c0-0.2-0.1-0.4-0.2-0.7l0.1,0.6l0.1,0.8
		c-0.1,0-0.1,0-0.2-0.1c0-0.1-0.1-0.2-0.2-0.2c0-0.1,0-0.3,0-0.4C235.8,128,235.8,127.8,235.7,127.7 M247.7,153.4
		c0.4-1.2,0.7-1.7,0.7-1.7c0,0-0.3,0.7-0.8,2.1c-0.5,1.4-1,2.7-1.7,4.1c-0.6,1.4-1.2,2.6-1.9,3.8c-0.1,0.1-0.1,0.1-0.1,0
		c0.1-0.1,0.2-0.2,0.2-0.3c-0.1,0.1-0.1,0.2-0.2,0.4c-0.1,0.2-0.1,0.3-0.3,0.5c-0.1,0.1-0.2,0.3-0.3,0.4c-0.1,0.1-0.1,0.2-0.3,0.4
		c0.3-0.4,0.6-0.7,0.8-1.2c0.2-0.4,0.4-0.8,0.7-1.2c-0.2,0.4-0.3,0.7-0.5,1c-0.2,0.3-0.4,0.7-0.7,1.2c-0.2,0.4-0.5,0.9-0.8,1.3
		c-0.3,0.5-0.7,1-1.1,1.5c0.1-0.1,0.3-0.3,0.5-0.5c0.2-0.2,0.4-0.5,0.5-0.8c0.3-0.3,0.5-0.6,0.7-0.9c0.1-0.3,0.3-0.5,0.5-0.6
		c0.1-0.1,0.1,0-0.1,0.2c-0.1,0.5-0.2,0.7-0.3,0.7c-0.2,0.4-0.5,0.8-0.7,1.1c-0.2,0.3-0.4,0.6-0.5,0.9c-0.3,0.4-0.5,0.7-0.7,1
		c-0.2,0.3-0.4,0.5-0.7,0.8c-0.4,0.4-0.8,0.9-1.3,1.4c-0.5,0.5-1,0.9-1.5,1.3c-0.1,0.1-0.3,0.2-0.4,0.3c-0.2,0.1-0.3,0.1-0.4,0.2
		c-0.3,0.2-0.4,0.3-0.5,0.3l-0.3,0.1l0,0.1l-0.2,0l-0.9,0.4l-0.1,0l-0.1,0l-0.1,0c-0.1,0-0.1,0-0.2,0.1c-0.1,0-0.1,0.1-0.2,0.1
		l-0.4,0c-0.6,0.2-1.1,0.1-1.5-0.2c-0.2,0-0.4,0-0.5-0.1c-0.1,0-0.1,0-0.1,0c0,0,0,0-0.1,0l-0.1-0.1l-0.2-0.2
		c-0.1-0.1-0.2-0.2-0.3-0.4c-0.1-0.1-0.3-0.2-0.4-0.4c-0.2-0.3-0.3-0.6-0.5-1c-0.2-0.3-0.3-0.6-0.4-1c-0.1-0.3-0.2-0.7-0.2-1
		c-0.1-0.3-0.1-0.7-0.1-1.1c-0.2-0.7-0.3-1.3-0.3-1.9c0-0.6,0-1.3,0-1.9c0-1.2,0.1-2.5,0.3-3.8c0.1-0.6,0.1-1.2,0.2-1.8
		c0-0.6,0.1-1.2,0.2-1.8c0.1-0.3,0.2-0.6,0.2-0.9c0-0.3,0.1-0.6,0.2-1c0-0.3,0.1-0.5,0.1-0.8c0-0.2,0.1-0.5,0.2-0.9
		c0.2-1.2,0.3-2.3,0.5-3.5c0.2-1.2,0.4-2.4,0.6-3.5c0.1-0.1,0.1-0.4,0-0.8c0.1-0.1,0.1-0.3,0.2-0.4c0.1-0.1,0.1-0.3,0.1-0.4
		c0.1-0.7,0.3-1.3,0.4-1.8c0.1-0.6,0.3-1.2,0.5-1.8c0.2-0.6,0.4-1.2,0.6-1.8c0.1-0.3,0.2-0.6,0.3-0.9c0.1-0.2,0.3-0.5,0.4-0.8
		c0.2-0.6,0.6-1.1,1.1-1.7c0.2-0.2,0.5-0.4,0.7-0.7c0.2-0.2,0.4-0.4,0.7-0.6c0.6-0.3,1.2-0.4,1.8-0.5c0.3,0,0.6,0,0.7,0
		c0.1,0,0.2,0,0.3,0c0,0,0.1,0,0.2,0l0,0.1l0.1,0l0.1,0c0,0.1,0,0.1,0.1,0.1c0.3,0.1,0.6,0.3,0.8,0.4c0.1,0.1,0.3,0.2,0.4,0.3
		c0.1,0.1,0.2,0.2,0.4,0.3c0.3,0.6,0.6,1.2,0.8,1.8c0.2,0.3,0.3,0.6,0.3,0.9c0,0.3,0.1,0.6,0.2,0.8c0.1,0.7,0.1,1.3,0.2,1.8
		c0,0.6,0.1,1.1,0,1.8c-0.1,0.5-0.1,1.1-0.1,1.7c0,0.6,0,1.1-0.1,1.7c-0.1,0.7-0.2,1.3-0.2,2c-0.1,0.6-0.2,1.3-0.2,2
		c-0.1,0.3-0.2,0.7-0.2,1c0,0.3-0.1,0.7-0.1,1c-0.1,0.1-0.1,0.3-0.2,0.5c-0.1,0.2-0.1,0.4-0.1,0.6l-0.2,0.4l-0.1,0.3l0,0.1l0,0.1
		l0-0.1l0,0.1c-0.2,1.4-0.5,2.7-0.7,4c-0.3,1.3-0.5,2.6-0.7,3.9c0,0.3,0,0.5,0,0.6l0.1,0c0.1-0.1,0.1-0.3,0.2-0.4
		c0.1-0.1,0.2-0.3,0.3-0.4c0.5-0.5,0.9-1,1.3-1.6c0.4-0.5,0.7-1,1-1.4c0.5-0.7,0.9-1.4,1.3-2.1c0.4-0.7,0.7-1.3,1-2
		c0.2-0.4,0.4-0.7,0.4-0.9l0.3-0.6c0.1-0.1,0.1-0.1,0,0c-0.1,0.1-0.1,0.2-0.1,0.2c0.2-0.5,0.3-1,0.5-1.4c0.2-0.4,0.3-0.6,0.4-0.6
		c-0.1,0.1-0.1,0.2-0.1,0.3c0,0.1-0.1,0.2-0.2,0.5c-0.1,0.1,0,0.1,0.2-0.1c0.1-0.4,0.2-0.6,0.2-0.6c-0.1,0.2-0.1,0.4-0.2,0.6
		c-0.1,0.2-0.2,0.4-0.3,0.8c0.2-0.6,0.4-0.9,0.5-1.1c0.1-0.1,0.1-0.3,0.2-0.4c0.1-0.1,0.1-0.4,0.2-0.7l-0.1,0.1l0,0.2
		c0-0.1,0-0.2,0.1-0.3c0.1-0.1,0.1-0.3,0.3-0.6c-0.1,0.3-0.1,0.3,0,0.1c0.1-0.2,0.2-0.4,0.3-0.6c0,0.1,0,0.3-0.1,0.6l0.2-0.9
		c0.1-0.1,0.2-0.1,0.1,0.2c0,0.3-0.1,0.6-0.2,0.8c0.1-0.1,0.2-0.3,0.2-0.5c0-0.2,0-0.4,0-0.5c0.1-0.1,0.2-0.1,0.1,0
		c0.1-0.3,0.2-0.6,0.3-0.9c0.1-0.2,0.2-0.5,0.3-0.7c0-0.3,0.1-0.5,0.1-0.6l0.8-0.1c-1.2,4.3-2.4,7.8-3.7,10.7
		c-1.3,2.9-2.5,5.3-3.7,7.1c-1.2,1.9-2.4,3.3-3.4,4.3c-1.1,1-2.1,1.7-2.9,2.2c0.2-0.1,0.6-0.3,1.2-0.7c0.3-0.2,0.5-0.3,0.7-0.5
		c0.2-0.2,0.4-0.3,0.5-0.5c0.3-0.2,0.6-0.3,0.7-0.6c0.1-0.2,0.3-0.4,0.4-0.6c0.3,0,0.5-0.2,0.7-0.6c0.1-0.1,0.3-0.3,0.5-0.5
		c0.2-0.2,0.4-0.4,0.6-0.6c0.3-0.4,0.6-0.7,0.8-1.1c0.2-0.4,0.4-0.6,0.5-0.7c-0.1,0.1-0.3,0.5-0.8,1.4c0.3-0.4,0.5-0.6,0.6-0.9
		c0.1-0.2,0.2-0.4,0.3-0.5c0.1-0.1,0.2-0.3,0.2-0.4c0.1-0.1,0.2-0.3,0.4-0.5c0.1-0.2,0.3-0.4,0.4-0.7c0.2-0.4,0.4-0.6,0.5-0.9
		c0.1-0.2,0.2-0.5,0.3-0.7c0.5-0.8,0.9-1.7,1.3-2.6c0.4-0.9,0.8-1.8,1.2-2.7c0,0.1,0,0.2-0.1,0.3c-0.1,0.1-0.1,0.3-0.2,0.5l-0.4,0.6
		c0.1-0.2,0.2-0.5,0.4-0.8c0.1-0.3,0.3-0.6,0.5-1c0.1-0.3,0.2-0.5,0.3-0.7c0.1-0.2,0.2-0.4,0.2-0.5c0,0.2-0.1,0.4-0.2,0.6
		c-0.1,0.2-0.2,0.5-0.3,0.7l0.8-2.1c0.3-1,0.5-1.7,0.8-2.3c-0.3,0.8-0.6,1.6-0.8,2.5c-0.3,0.9-0.6,1.8-0.9,2.7
		c-0.5,0.9-0.9,1.8-1.3,2.8c-0.4,0.9-0.9,1.9-1.3,2.8c-0.5,1-1.1,1.9-1.7,2.8c-0.6,0.9-1.2,1.7-1.8,2.5c-0.7,0.8-1.4,1.5-2.1,2.1
		c-0.7,0.6-1.5,1.2-2.2,1.6c0.3,0,0.9-0.4,1.7-1.1c0.5-0.4,0.9-0.8,1.2-1.2c0.3-0.2,0.6-0.4,0.7-0.6c0.1-0.2,0.3-0.4,0.5-0.6
		c0.6-0.5,1.2-1.3,1.9-2.4c0.8-1.2,1.5-2.5,2.2-3.9c0.6-1,1.1-2.1,1.6-3.2C246.8,155.7,247.3,154.6,247.7,153.4"/>
	<path d="M274.9,143.6c0.1-0.1,0.2-0.3,0.2-0.5c0-0.2,0-0.3,0.1-0.5c-0.1,0.2-0.1,0.4-0.2,0.5C274.9,143.4,274.9,143.5,274.9,143.6
		l0,0.1l-0.1,0c-1.1,0.8-2.1,1.6-3.2,2.3c-1.1,0.7-2.2,1.5-3.4,2.3c-0.3,0.2-0.6,0.5-0.8,0.7c-0.2,0.2-0.5,0.4-0.7,0.7
		c-0.3,0.2-0.6,0.4-0.9,0.6c-0.2,0.2-0.5,0.4-0.7,0.7c-0.4,0.2-0.7,0.5-1,0.7c-0.3,0.2-0.6,0.5-0.9,0.7c-0.1,0.1-0.3,0.3-0.5,0.5
		c-0.2,0.2-0.4,0.4-0.6,0.6c0.6-0.9,1.5-1.6,2.6-2.1c0.4-0.5,0.9-0.9,1.4-1.3c0.5-0.4,1-0.8,1.5-1.2c1.1-0.8,2.1-1.5,3-2.1
		c0.9-0.6,1.8-1.3,2.7-1.9c0.3-0.2,0.6-0.3,0.8-0.5c0.2-0.2,0.5-0.4,0.7-0.5L274.9,143.6z M262,153.5l0.1,0l0,0.1L262,153.5
		L262,153.5z M262,153.2l0,0.2l0.1,0l-0.1,0.1L262,153.2z M261.9,153.6l0.1-0.1L261.9,153.6z M261.8,153.5c0.1,0,0.1,0,0.1-0.1
		l0.1,0.1L261.8,153.5z M262.3,150.4c-0.2,0.2-0.4,0.4-0.6,0.7c0.5-0.4,1.1-0.8,1.7-1.2c0.6-0.5,1.1-0.8,1.5-1
		c-0.5,0.3-1,0.6-1.3,0.9C263,150,262.6,150.2,262.3,150.4 M261.6,153.5c0-0.2,0-0.3,0.1-0.4l0,0.3L261.6,153.5z M258.8,145.8
		c0.2,0.3,0.3,0.6,0.4,0.8c0.1,0.2,0.2,0.5,0.3,0.7c0.1,0.5,0.2,1,0.4,1.4c0.2,0.4,0.3,0.8,0.3,1.1c-0.1-0.5-0.2-0.9-0.3-1.3
		c-0.1-0.4-0.2-0.9-0.4-1.3c-0.1-0.2-0.2-0.4-0.3-0.6C259.1,146.4,259,146.1,258.8,145.8c-0.2-0.5-0.2-0.8-0.2-1.1
		C258.5,145.1,258.6,145.4,258.8,145.8 M258.5,144.6L258.5,144.6L258.5,144.6L258.5,144.6l0-0.4L258.5,144.6L258.5,144.6l0.1,0.1
		L258.5,144.6z M256.2,134.4c0.3-0.1,0.6-0.2,0.8-0.3c0.2-0.1,0.3-0.2,0.5-0.4c0.1,0,0.1,0,0.1-0.1l0.1-0.1l0.1,0
		c0.1,0,0.1,0,0.1-0.1c0.1,0,0.2-0.1,0.3-0.1l0.2,0l-0.2,0l-0.1,0.1c-0.1,0-0.1,0-0.2,0.1l-0.1,0l-0.1,0c-0.2,0.3-0.4,0.5-0.6,0.5
		c-0.2,0.2-0.4,0.3-0.6,0.3C256.2,134.4,256.1,134.4,256.2,134.4 M252.5,166.9c0.1-0.6,0.1-1.2,0.2-1.8c-0.1,0-0.1,0.2,0,0.7l0,0.2
		c0,0.1,0,0.2,0,0.3c0,0,0,0.1,0,0.2c-0.1-0.1-0.1-0.2-0.1-0.3l0,0.3c-0.1,0.1-0.2,0.3-0.2,0.5l-0.2,0.1l0,0.2
		c-0.1,0.1-0.1,0.1-0.1,0.2c0,0.1,0,0.1,0,0.1c0,0,0,0,0,0.1l0.1-0.2c-0.1,0.1-0.1,0.1-0.1,0.2c0,0.1,0,0.1-0.1,0.2l0-0.2
		c0,0.1,0,0.2-0.1,0.2l0,0.3c0-0.3,0-0.7,0.1-1.4c0.1-0.3,0.2-0.4,0.2-0.5l0-0.3l0-0.4l0-0.4c-0.1,0-0.1,0.1-0.1,0.3
		c0,0.1,0,0.1,0.1,0.2c0,0.1,0.1,0.2,0.1,0.3c-0.1,0-0.2,0.1-0.1,0.3c0,0.2,0,0.4-0.1,0.8c-0.1,0-0.1,0-0.1,0.1l0,0.2l0,0.2l0,0.1
		c0,0.1,0,0.1,0,0.1c0,0,0,0,0,0.1l0,0.4l0,0.2l0,0.1l0.2,0.2C252.2,168.1,252.4,167.5,252.5,166.9 M251.4,168.2l0.3,0.3
		c0-0.3-0.1-0.6-0.1-0.9c0-0.3,0-0.6,0.1-1l-0.1,0c0-0.1,0-0.1,0.1-0.1l0.1-0.1c-0.1,0.1-0.2,0.3-0.2,0.4c0-0.1,0-0.2,0-0.3
		c0,0,0-0.1,0-0.2l0-0.4l-0.1,0.2l-0.1,0.2c-0.1,0-0.1,0-0.1,0c0,0,0,0-0.1,0l0-0.1c0-0.1,0-0.1,0-0.2c0,0,0-0.1,0-0.2
		c0-0.1,0-0.1,0-0.2c0-0.1,0-0.1,0-0.2l0.2-0.5c0.1-0.3,0.2-0.4,0.2-0.5l0-0.2c0-0.1,0-0.2,0.1-0.2c0.1-0.2,0.2-0.4,0.3-0.7
		c0.1-0.2,0.2-0.4,0.5-0.6l0-0.2c0-0.5-0.1-0.8-0.2-1.1c-0.2,0.2-0.3,0.4-0.5,0.6c-0.1,0.2-0.2,0.4-0.4,0.6l-0.1,0.1l0-0.1
		c-0.1,0.1-0.2,0.3-0.5,0.4c0,0.1,0,0.1,0,0.1c0,0,0,0.1,0,0.2c0,0.3,0,0.6,0,0.7l0,0.2c0,0.1,0,0.1,0.1,0.1c0,0,0.1,0,0.1,0.1
		l0,0.2c0,0.1,0,0.1,0,0.2c0,0,0,0.1,0,0.2l0,0.2c0,0.1,0,0.2,0.1,0.3c0,0.1,0.1,0.1,0.1,0.2l0,0.2l0,0.1l0.1,0.2l0,0.1
		c0,0.1,0,0.2-0.1,0.3l0.1,0.7l0.1,0.6l0,0.2L251.4,168.2z M250.9,166.7c0.1-0.1,0.1-0.2,0.1-0.4C251,166.5,250.9,166.6,250.9,166.7
		l0,0.4L250.9,166.7z M250.8,167.2c0,0.3,0.1,0.6,0.2,0.7c0-0.2-0.1-0.3-0.1-0.4L250.8,167.2z M262.1,153.5c0,0.3,0.1,0.7,0.1,1
		c0.1,0.4,0,0.7-0.1,1.1c-0.1,0.1-0.1,0.2,0,0.2c0,0,0.1-0.1,0.1-0.3l0-0.3c0,0.3,0,0.7,0,1c0.1,0.2,0.1,0.5,0.2,1
		c0-0.3-0.1-0.6-0.1-0.8c0-0.2-0.1-0.5,0-0.8c0.1-0.3,0.1-0.6,0.1-0.9c-0.1-0.2-0.1-0.4-0.2-0.6c0.2,0.4,0.2,0.8,0.2,1.3
		c0,0.5,0,1,0,1.5c0,0.6-0.1,1.2-0.1,1.9c-0.1,0.7-0.1,1.5-0.2,2.3c0-0.2,0.1-0.5,0.1-0.9c0-0.4,0.1-0.7,0.2-1.1
		c0.1-0.5,0.2-0.9,0.2-1.3c0-0.4,0.1-0.8,0.1-1.1c0-0.1,0-0.1,0,0c0,0.1,0.1,0.3,0.1,0.5c0,0.1,0,0.3,0,0.4c0,0.1,0,0.3,0,0.4
		c-0.1,0.5-0.2,1-0.2,1.5c-0.1,0.4-0.1,0.9,0,1.4c0,0.2-0.1,0.4,0,0.6c0,0.2,0,0.4,0,0.6l-0.2,0.4l-0.1,0l0,0.1l0,0.2
		c-0.1,0.3-0.2,0.5-0.2,0.5c-0.2,0.4-0.3,0.7-0.4,1.1c-0.1,0.4-0.2,0.7-0.3,1.1c-0.4,0.8-0.7,1.6-1,2.4c-0.2,0.4-0.5,0.8-0.8,1.2
		c-0.3,0.4-0.6,0.8-0.9,1.2c-0.1,0.1-0.2,0.3-0.3,0.3c-0.1,0.1-0.2,0.1-0.2,0.2c0,0.1,0,0.1,0,0.1c0,0,0,0,0,0.1l-0.2,0.1l-0.1,0.1
		l-0.2,0.1c-0.1,0.1-0.3,0.3-0.6,0.5c-0.3,0.2-0.5,0.4-0.7,0.5l-1.2,0.4c-0.4,0.2-0.8,0.3-1.4,0.3c-0.5,0-0.9,0-1.3-0.1
		c-0.4-0.1-0.8-0.2-1.1-0.3l-0.1-0.1c-0.2-0.2-0.5-0.4-0.7-0.5c-0.3-0.2-0.6-0.4-0.9-0.5c-0.2-0.2-0.4-0.5-0.7-0.7
		c-0.2-0.2-0.4-0.5-0.6-0.9c-0.2-0.3-0.4-0.7-0.6-1.1c-0.2-0.4-0.4-0.7-0.4-1.1c-0.1-0.2-0.1-0.4-0.1-0.6c0-0.2,0-0.5,0.1-0.7
		c0-0.5,0-0.9,0-1.2c0-0.4,0.1-0.8,0.1-1.1c0-0.3,0.2-0.7,0.4-1c0.1-0.3,0.2-0.7,0.3-0.9c0.1-0.3,0.3-0.6,0.4-0.9
		c0.2-0.4,0.5-0.8,0.8-1.2c0.3-0.4,0.6-0.7,0.9-1.1l-1.9-4.2c0-0.1-0.1-0.4-0.4-0.8l0-0.1c-0.1-0.7-0.2-1.5-0.5-2.2
		c-0.3-0.7-0.5-1.5-0.6-2.3c0-0.4,0-0.8-0.1-1.2c-0.1-0.4-0.1-0.8-0.1-1.3c0-0.5,0-0.9,0-1.1c0.1-0.1,0.2-0.3,0.2-0.4
		c0-0.1,0.1-0.3,0.1-0.4l0-0.1l0-0.1c0.1,0,0.1,0,0.1-0.1l0-0.3c0.1-0.3,0.2-0.5,0.2-0.7c0-0.2,0.1-0.4,0.2-0.7
		c0.1-0.1,0.1-0.1,0.1-0.2c0.1-0.1,0.1-0.2,0-0.3l0.1-0.1l0.1-0.1l0.2-0.3c0.3-0.6,0.8-1.3,1.3-2c0.3-0.6,0.7-1.2,1.3-1.8
		c0.6-0.5,1.1-1.1,1.7-1.6c0.5-0.6,1-1.1,1.6-1.6c0.6-0.5,1.2-0.9,1.8-1.3c0.3-0.2,0.6-0.4,0.9-0.6c0.3-0.2,0.6-0.4,1-0.5l0.1,0
		l0.1-0.1l0.2-0.1c0.1-0.1,0.3-0.1,0.5-0.1c0.1-0.1,0.3-0.2,0.4-0.3c0.2,0,0.3-0.1,0.4-0.2c0.4-0.2,0.7-0.3,1.1-0.5
		c0.3-0.2,0.6-0.3,1-0.3c0.6-0.3,1.3-0.5,2.1-0.7l1-0.1c0.6-0.1,1-0.1,1.3,0c0.2,0,0.4,0,0.6,0.1c0.2,0.1,0.4,0.1,0.6,0.3
		c0.3,0.1,0.5,0.3,0.5,0.6c0.1,0.1,0.3,0.2,0.4,0.3c0.1,0.1,0.2,0.2,0.4,0.3c0,0.1,0,0.3,0,0.4c0,0.1,0,0.3,0.1,0.4
		c0,0.5,0,0.7-0.2,0.8c0,0.1,0,0.1,0.1,0.2l-0.1,0.1l0,0.1l0,0.1l0,0.2c0,0.1,0,0.3-0.1,0.4c-0.1,0.1-0.2,0.2-0.2,0.4
		c-0.1,0.2-0.2,0.4-0.2,0.6c0,0.2-0.1,0.4-0.2,0.6c-0.1,0.1-0.3,0.3-0.4,0.6c-0.1,0.2-0.3,0.5-0.6,0.7c-0.2,0.1-0.4,0.3-0.6,0.4
		c-0.2,0.1-0.5,0.2-0.8,0.3c-0.1,0.1-0.2,0.1-0.3,0.1l-0.2,0c0,0.1,0,0.1-0.1,0.1l-0.1,0c-0.1-0.1-0.3-0.1-0.4-0.1
		c-0.1,0-0.3,0-0.5-0.1c-0.1-0.1-0.3-0.1-0.4-0.2c-0.1-0.1-0.3-0.1-0.5-0.3c-0.1-0.1-0.2-0.2-0.2-0.4c0-0.1-0.1-0.3-0.1-0.4
		c0,0.1,0,0.1-0.1,0.2c-0.3,0.3-0.6,0.5-0.7,0.7c-0.2,0.2-0.3,0.4-0.5,0.6c-0.4,0.6-0.7,1.1-1,1.6c-0.2,0.5-0.5,1-0.8,1.6l0.1,1.3
		c0,0.3,0,0.5,0.1,0.7c0.1,0.2,0.2,0.4,0.2,0.6l0,0.2l0-0.2c-0.1,0.3,0,0.7,0.2,1c0,0.1,0,0.1,0.1,0.2l0,0.3l0,0.5
		c0.2,0.3,0.3,0.6,0.5,0.9c0.2,0.3,0.3,0.6,0.4,0.9c0.2,0.5,0.4,1,0.5,1.5c0.2,0.5,0.3,0.9,0.5,1.3c0.1-0.1,0.2-0.2,0.3-0.3
		c0.1,0,0.2-0.1,0.3-0.2c0.9-0.6,1.7-1.1,2.4-1.6c0.7-0.5,1.5-0.9,2.4-1.4l1.5-0.9c0.3-0.2,0.3-0.2,0.1-0.1
		c-0.2,0.1-0.2,0.2-0.1,0.2c0.4-0.3,0.9-0.6,1.3-0.8c0.4-0.2,0.7-0.4,0.8-0.6l-0.9,0.7c-0.1,0.1,0,0.1,0.3-0.1
		c0.3-0.2,0.5-0.3,0.6-0.4c-0.2,0.2-0.4,0.3-0.5,0.3c-0.2,0.1-0.4,0.2-0.6,0.4c0.4-0.3,0.8-0.5,1-0.6c0.2-0.1,0.6-0.3,1.2-0.7
		c-0.1,0-0.2,0.1-0.4,0.1l1-0.5c-0.3,0.2-0.3,0.2-0.1,0.1s0.3-0.2,0.5-0.3l-0.1,0.1c-0.1,0.1-0.2,0.2-0.4,0.2l0.2-0.1l0.3-0.2
		l0.2-0.1l0.1-0.1c0.3-0.2,0.2-0.1,0,0.1c-0.3,0.2-0.5,0.4-0.7,0.5c0.1-0.1,0.3-0.3,0.5-0.3c0.2-0.1,0.4-0.2,0.5-0.2l0.1,0
		c0.3-0.2,0.6-0.3,0.9-0.5c0.3-0.2,0.5-0.3,0.7-0.5l0.6-0.3l0,0.1l-0.3,0.9c-1.9,1.2-3.7,2.3-5.3,3.5c-1.5,1-2.9,2-4.5,3.1
		c-1.5,1.1-2.7,2.1-3.6,3c0.2,0.8,0.3,1.9,0.2,3.5c-0.1,1.5-0.4,3.3-0.9,5.4c-0.4,1.2-0.9,2.4-1.4,3.5s-1,2.2-1.7,3.2
		c0-0.1,0.1-0.2,0.4-0.3c0.1-0.1,0.2-0.3,0.3-0.6c0.1-0.2,0.2-0.5,0.4-0.7c0.1-0.3,0.3-0.7,0.5-0.9c0.2-0.3,0.4-0.6,0.6-1
		c0.1-0.3,0.2-0.7,0.3-1c0.1-0.3,0.1-0.6,0.2-1c0.1-0.1,0.2-0.5,0.3-1c0.3-0.4,0.5-0.9,0.6-1.6c0.1-0.3,0.2-0.6,0.2-0.9
		c0-0.3,0-0.5,0.1-0.7c0.2-0.3,0.3-0.6,0.3-0.8c0-0.2,0-0.3,0-0.5c0,0.1,0,0.2,0,0.3c0,0.1,0,0.2-0.2,0.4c0,0.2,0,0.4,0,0.6
		c0,0.2-0.1,0.4-0.2,0.8c0.1-0.2,0.2-0.4,0.2-0.6c0.1-0.2,0.1-0.5,0.2-0.8c-0.1-0.2-0.1-0.4-0.1-0.6c0-0.2,0.1-0.4,0.1-0.5
		c0.1-0.1,0.1-0.4,0-0.7c-0.1-0.3,0-0.7,0.1-1c0.1-0.4,0.1-0.8,0-1.1c-0.1-0.3-0.2-0.6-0.2-0.8c0.1-0.1,0.1-0.3,0.1-0.4
		c0.5-0.7,1.1-1.3,1.8-1.9c0.5-0.3,0.9-0.6,1.3-0.9c0.3-0.3,0.7-0.6,1-0.8c-0.2,0.2-0.4,0.4-0.7,0.5c-0.1,0.1-0.2,0.3-0.3,0.3
		c-0.1,0.1-0.1,0.1-0.1,0.2c0.2-0.1,0.4-0.3,0.7-0.5c0.3-0.2,0.6-0.4,0.9-0.6c0.2-0.3,0.5-0.5,0.7-0.6c0.2-0.1,0.4-0.2,0.5-0.4
		c-0.3,0.2-0.5,0.3-0.7,0.5c-0.2,0.2-0.4,0.3-0.6,0.5c0.2-0.1,0.5-0.4,0.8-0.6c0.3-0.3,0.7-0.5,1-0.8c0.4-0.2,0.9-0.5,1.3-0.8
		c0.4-0.3,0.7-0.5,1-0.6c-0.7,0.5-1.4,0.9-2.1,1.4c-0.7,0.5-1.4,1-2.1,1.6c-0.4,0.2-0.8,0.5-1.2,0.8c-0.3,0.3-0.7,0.6-1.2,1
		c-0.8,0.5-1.4,1-1.8,1.7l0-0.3l-0.1,0.1l0-0.1l0,0.1c0,0.1,0,0.1,0,0.1c0,0,0,0,0,0.1l0-0.3l-0.2,0.5l0.1-0.1c0,0.1,0,0.1-0.1,0.2
		l0.2-0.1c-0.1,0.1-0.2,0.2-0.2,0.2c0.1-0.1,0.2-0.1,0.3-0.2c0.1,0.5,0.1,1.1,0.1,1.7c0,0.6,0,1.3,0.1,1.8c0,0.6-0.1,1.2-0.2,1.9
		c-0.1,0.7-0.3,1.4-0.5,2.1c0,0.4,0,0.7-0.1,1c-0.2,0.1-0.3,0.5-0.4,1c-0.1,0.3-0.2,0.6-0.3,0.9c-0.1,0.3-0.2,0.6-0.3,1
		c-0.3,0.6-0.6,1.2-0.8,1.8c-0.3,0.6-0.6,1.2-0.9,1.8c0.1-0.1,0.1-0.3,0.3-0.4c0.1-0.1,0.2-0.3,0.4-0.6c0.1-0.2,0.2-0.4,0.4-0.7
		c0.1-0.2,0.3-0.5,0.4-0.8c0.4-0.8,0.6-1.5,0.7-2.1c0.1-0.5,0.3-1.2,0.7-2.1c0-0.3,0.1-0.8,0.3-1.4c0.1-0.6,0.3-1.3,0.3-2
		c0.1-0.7,0.1-1.5,0.1-2.4c0-0.9,0-1.8,0-2.7L262.1,153.5z"/>
	<path d="M137.8,74.8h4.6v14.9h0.1c1.5-3.4,5.5-4.8,8.9-4.8c7.4,0,9.7,4.2,9.7,10.3v18.5h-4.6V94.7c0-3.4-2.2-5.7-5.7-5.7
		c-5.6,0-8.3,3.8-8.3,8.8v15.9h-4.6V74.8z"/>
	<path d="M192.4,113.6c-0.8,0.5-1.9,0.8-3.3,0.8c-2.4,0-3.9-1.3-3.9-4.4c-2.6,3-6,4.4-9.9,4.4c-5.1,0-9.3-2.3-9.3-7.9
		c0-6.4,4.7-7.7,9.5-8.7c5.1-1,9.5-0.7,9.5-4.1c0-4-3.3-4.7-6.3-4.7c-3.9,0-6.8,1.2-7,5.3h-4.6c0.3-7,5.7-9.4,11.9-9.4
		c5.1,0,10.6,1.1,10.6,7.7v14.5c0,2.2,0,3.2,1.5,3.2c0.4,0,0.8-0.1,1.4-0.3V113.6z M184.9,99.2c-1.8,1.3-5.3,1.4-8.4,1.9
		c-3.1,0.5-5.7,1.6-5.7,5.1c0,3,2.6,4.1,5.4,4.1c6.1,0,8.6-3.8,8.6-6.4V99.2z"/>
	<polygon points="208,113.7 203.1,113.7 192.6,85.6 197.8,85.6 205.7,109 205.8,109 213.5,85.6 218.3,85.6 	"/>
	<path d="M246.1,113.6c-0.8,0.5-1.9,0.8-3.3,0.8c-2.4,0-3.9-1.3-3.9-4.4c-2.6,3-6,4.4-9.9,4.4c-5.1,0-9.3-2.3-9.3-7.9
		c0-6.4,4.7-7.7,9.5-8.7c5.1-1,9.5-0.7,9.5-4.1c0-4-3.3-4.7-6.3-4.7c-3.9,0-6.8,1.2-7,5.3h-4.6c0.3-7,5.7-9.4,11.9-9.4
		c5.1,0,10.6,1.1,10.6,7.7v14.5c0,2.2,0,3.2,1.5,3.2c0.4,0,0.8-0.1,1.4-0.3V113.6z M238.6,99.2c-1.8,1.3-5.3,1.4-8.4,1.9
		c-3.1,0.5-5.7,1.6-5.7,5.1c0,3,2.6,4.1,5.4,4.1c6.1,0,8.6-3.8,8.6-6.4V99.2z"/>
	<path d="M252.9,104.9c0.2,4.1,3.8,5.4,7.6,5.4c2.9,0,6.8-0.7,6.8-4.2c0-3.6-4.6-4.2-9.2-5.2c-4.6-1-9.2-2.6-9.2-8
		c0-5.7,5.6-8,10.5-8c6.2,0,11.2,2,11.5,8.8h-4.6c-0.3-3.6-3.5-4.7-6.5-4.7c-2.8,0-6,0.8-6,3.6c0,3.3,4.9,3.9,9.2,4.9
		c4.6,1,9.2,2.6,9.2,8c0,6.7-6.3,8.9-12,8.9c-6.3,0-11.7-2.6-11.9-9.5H252.9z"/>
</g>
</svg>
