<svg id="Calque_1" fill="#EE4348" data-name="Calque 1" xmlns="http://www.w3.org/2000/svg" viewBox="0 0 172.26 40.57" shape-rendering="geometricPrecision" image-rendering="optimize-quality"><title>logo_10h11</title><path class="cls-1" d="M2246,317.36l-7.06,3.18-0.49-1,7.7-3.5h1v38H2246V317.36Z" transform="translate(-2187.21 -314.54)"/><path class="cls-1" d="M2257.35,335.19v-0.11c0-10.29,5.6-19.44,15.4-19.44s15.41,9.1,15.41,19.44v0.11c0,10.29-5.6,19.44-15.41,19.44S2257.35,345.53,2257.35,335.19Zm29.63,0.05v-0.11c0-9.59-5.17-18.42-14.27-18.42s-14.17,8.67-14.17,18.31v0.11c0,9.59,5.17,18.42,14.27,18.42S2287,344.88,2287,335.24Z" transform="translate(-2187.21 -314.54)"/><path class="cls-1" d="M2298.39,314.67h1.13v19.77a11.14,11.14,0,0,1,10.83-8c7.27,0,11.31,4.9,11.31,12.33V354h-1.13V338.85c0-6.73-3.5-11.37-10.29-11.37-6,0-10.72,5.12-10.72,11.58V354h-1.13V314.67Z" transform="translate(-2187.21 -314.54)"/><path class="cls-1" d="M2339.43,317.36l-7.06,3.18-0.49-1,7.7-3.5h1v38h-1.13V317.36Z" transform="translate(-2187.21 -314.54)"/><path class="cls-1" d="M2358.34,317.36l-7.06,3.18-0.49-1,7.7-3.5h1v38h-1.13V317.36Z" transform="translate(-2187.21 -314.54)"/><path class="cls-1" d="M2207.5,314.54a20.29,20.29,0,1,0,20.29,20.29A20.31,20.31,0,0,0,2207.5,314.54Zm0,39.55a19.26,19.26,0,1,1,19.26-19.26A19.28,19.28,0,0,1,2207.5,354.09Z" transform="translate(-2187.21 -314.54)"/><path class="cls-1" d="M2207.54,334.24l-6.18-4.22-0.58.85,6.43,4.38h0a0.51,0.51,0,0,0,.28.09,0.5,0.5,0,0,0,.22-0.05h0l13.38-6.49-0.45-.92Z" transform="translate(-2187.21 -314.54)"/></svg>