<?xml version="1.0" encoding="iso-8859-1"?>
<!-- Generator: Adobe Illustrator 16.0.0, SVG Export Plug-In . SVG Version: 6.00 Build 0)  -->
<!DOCTYPE svg PUBLIC "-//W3C//DTD SVG 1.1//EN" "http://www.w3.org/Graphics/SVG/1.1/DTD/svg11.dtd">
<svg version="1.1" id="Calque_1" xmlns="http://www.w3.org/2000/svg" xmlns:xlink="http://www.w3.org/1999/xlink" x="0px" y="0px"
	 width="417.64px" height="325.453px" viewBox="0 0 417.64 325.453" style="enable-background:new 0 0 417.64 325.453;"
	 xml:space="preserve">
<polygon style="fill:#CECECE;" points="0,274.033 35.168,209.781 6.091,159.418 "/>
<polygon style="fill:#CECECE;" points="0,274.033 68.399,267.339 39.324,216.977 "/>
<polygon style="fill:#CECECE;" points="101.907,325.376 72.832,275.015 0,274.033 "/>
<rect x="-0.91" y="75.855" transform="matrix(0.866 -0.5 0.5 0.866 -31.2185 93.3539)" style="fill:#FFFFFF;" width="319.004" height="58.153"/>
<rect x="38.844" y="157.762" transform="matrix(0.866 -0.5 0.5 0.866 -73.3704 99.8529)" style="fill:#FFFFFF;" width="221.598" height="58.152"/>
<rect x="125.025" y="184.387" transform="matrix(-0.5 -0.866 0.866 -0.5 4.5679 525.9253)" style="fill:#FFFFFF;" width="58.153" height="154.513"/>
<polygon style="fill:#E30613;" points="215.594,192.567 244.67,242.925 417.64,143.064 388.563,92.701 "/>
<polygon points="13.694,161.632 28.664,152.989 41.028,165.176 53.323,177.629 48.44,160.595 44.031,144.117 59.001,135.473 
	62.76,141.985 59.609,143.805 75.137,170.697 78.287,168.881 82.046,175.392 71.69,181.368 56.916,155.776 52.736,148.148 
	51.779,146.362 62.178,186.861 56.776,189.979 26.197,160.151 33.512,171.781 47.208,195.505 36.739,201.548 32.981,195.038 
	36.075,193.25 20.549,166.354 17.454,168.143 "/>
<polygon points="59.68,135.082 68.179,130.175 84.256,141.124 82.812,121.727 91.311,116.818 95.07,123.331 92.201,124.987 
	93.188,147.366 98.779,157.049 101.875,155.261 105.633,161.772 91.282,170.059 87.522,163.548 90.674,161.727 85.05,151.989 
	66.367,139.903 63.441,141.592 "/>
<g>
	<defs>
		<rect id="SVGID_1_" width="417.64" height="325.453"/>
	</defs>
	<clipPath id="SVGID_2_">
		<use xlink:href="#SVGID_1_"  style="overflow:visible;"/>
	</clipPath>
	<path style="clip-path:url(#SVGID_2_);" d="M144.384,121.131c2.809,11.363,0.009,19.773-10.065,25.59
		c-10.862,6.272-23.396,2.108-30.521-10.233c-7.128-12.343-4.798-25.465,5.559-31.445c7.036-4.062,11.543-2.363,14.774-1.056
		l-2.648-4.586l6.923-3.997l7.977,13.815l-7.148,4.127c-2.151-1.779-3.327-2.383-4.938-2.963c-3.277-1.126-6.698-0.814-9.625,0.875
		c-6.528,3.771-7.291,11.157-2.095,20.16c4.968,8.607,12.038,11.62,18.51,7.884c2.871-1.658,4.637-4.188,5.308-7.443
		c0.288-1.45,0.357-3.15-0.171-6.016L144.384,121.131z"/>
</g>
<polygon points="129.477,94.785 143.773,86.531 147.531,93.042 144.437,94.83 159.963,121.724 170.826,115.451 167.002,108.826 
	174.037,104.766 181.62,117.901 152.467,134.734 148.707,128.222 151.859,126.401 136.332,99.507 133.237,101.295 "/>
<polygon points="159.591,77.398 173.885,69.145 177.645,75.656 174.606,77.411 190.133,104.304 193.229,102.518 196.988,109.028 
	182.58,117.348 178.821,110.835 182.027,108.983 166.501,82.089 163.351,83.909 "/>
<polygon points="174.281,68.917 204.674,51.369 211.898,63.883 205.256,67.717 201.79,61.715 189.297,68.93 194.82,78.498 
	207.259,71.318 211.019,77.827 198.581,85.009 204.823,95.823 217.712,88.382 213.856,81.702 220.892,77.639 228.507,90.832 
	197.27,108.865 193.511,102.354 196.72,100.502 181.192,73.608 178.041,75.428 "/>
<polygon points="234.338,34.243 247.958,26.379 251.716,32.891 248.564,34.71 267.851,68.116 256.933,74.419 222.818,53.804 
	236.516,77.527 239.61,75.739 243.368,82.25 229.861,90.049 226.102,83.537 229.31,81.686 213.782,54.791 210.631,56.612 
	206.872,50.099 220.604,42.171 255.451,63.272 241.36,38.87 238.098,40.754 "/>
<polygon points="248.582,26.02 280.268,7.725 289.29,23.352 282.704,27.154 277.442,18.038 272.262,21.027 287.791,47.922 
	291.449,45.81 295.209,52.321 279.788,61.225 276.028,54.712 279.631,52.634 264.104,25.74 258.926,28.729 264.188,37.844 
	257.604,41.646 "/>
<polygon points="46.925,219.189 61.22,210.937 64.98,217.449 61.94,219.202 77.468,246.097 80.563,244.308 84.323,250.82 
	69.914,259.138 66.156,252.626 69.362,250.775 53.835,223.88 50.686,225.701 "/>
<g>
	<defs>
		<rect id="SVGID_3_" width="417.64" height="325.453"/>
	</defs>
	<clipPath id="SVGID_4_">
		<use xlink:href="#SVGID_3_"  style="overflow:visible;"/>
	</clipPath>
	<path style="clip-path:url(#SVGID_4_);" d="M83.766,233.478c4.448,3.543,9.128,4.242,14.024,1.414
		c4.334-2.502,6.098-6.467,4.3-9.578c-2.518-4.361-7.088-2.401-12.344-0.199c-4.942,2.1-9.231,3.896-14.467,2.238
		c-2.946-0.939-5.494-3.017-7.129-5.848c-3.694-6.398-1.017-14.889,5.906-18.886c6.304-3.639,10.905-2.297,13.706-1.345
		l-2.452-4.248l6.303-3.639l6.865,11.891l-6.134,3.541c-2.547-1.549-6.941-4.221-12.987-0.657c-3.546,2.049-5.172,5.857-3.669,8.462
		c1.603,2.775,4.016,2.665,10.622-0.32c4.852-2.121,7.946-3,11.062-3.063c7.022-0.054,10.749,4.06,12.319,6.778
		c4.183,7.246,1.575,16.377-5.966,20.73c-6.584,3.801-11.989,2.242-14.869,1.412l2.615,4.531l-6.585,3.803l-7.648-13.25
		L83.766,233.478z"/>
	<path style="clip-path:url(#SVGID_4_);" d="M109.616,191.675l5.883,10.193l6.36-3.674c4.053-2.34,5.329-5.718,3.399-9.059
		c-1.895-3.284-5.23-3.472-10.353-0.512L109.616,191.675z M94.488,191.729l18.291-10.562c12.271-7.083,17.997-0.801,20.188,2.992
		c3.53,6.115,0.772,10.046-0.49,11.759c4.825-0.221,7.611,0.965,12.089,8.72l1.177,2.04l3.266-1.883l3.758,6.511l-11.144,6.433
		l-5.785-10.021c-2.746-4.758-6.395-5.744-11.178-2.982l-5.628,3.25l6.112,10.586l2.757-1.59l3.76,6.512l-14.184,8.188l-3.758-6.514
		l3.32-1.916l-15.527-26.893l-3.265,1.883L94.488,191.729z"/>
</g>
<polygon points="129.386,171.58 143.681,163.328 147.44,169.839 144.401,171.593 159.929,198.488 163.023,196.7 166.783,203.21 
	152.374,211.531 148.616,205.017 151.823,203.167 136.296,176.271 133.146,178.091 "/>
<g>
	<defs>
		<rect id="SVGID_5_" width="417.64" height="325.453"/>
	</defs>
	<clipPath id="SVGID_6_">
		<use xlink:href="#SVGID_5_"  style="overflow:visible;"/>
	</clipPath>
	<path style="clip-path:url(#SVGID_6_);" d="M196.638,167.706c2.81,11.363,0.011,19.771-10.064,25.591
		c-10.861,6.271-23.396,2.109-30.521-10.234c-7.128-12.343-4.799-25.464,5.558-31.446c7.036-4.06,11.544-2.361,14.774-1.054
		l-2.648-4.588l6.924-3.996l7.977,13.815l-7.148,4.126c-2.151-1.777-3.327-2.382-4.938-2.962c-3.277-1.128-6.698-0.813-9.624,0.877
		c-6.529,3.768-7.293,11.153-2.096,20.159c4.969,8.604,12.039,11.62,18.511,7.881c2.87-1.656,4.637-4.186,5.308-7.441
		c0.288-1.452,0.357-3.152-0.171-6.018L196.638,167.706z"/>
</g>
<polygon points="181.676,141.391 196.085,133.073 199.811,139.526 196.716,141.314 202.206,150.826 216.559,142.54 211.065,133.028 
	207.916,134.849 204.188,128.393 218.541,120.108 222.268,126.562 219.173,128.351 234.73,155.301 237.825,153.513 241.587,160.023 
	227.289,168.277 223.531,161.766 226.626,159.978 220.383,149.165 206.031,157.452 212.275,168.265 215.427,166.445 
	219.186,172.957 204.721,181.309 200.962,174.798 204.137,172.887 188.61,145.995 185.401,147.846 "/>
<g>
	<defs>
		<rect id="SVGID_7_" width="417.64" height="325.453"/>
	</defs>
	<clipPath id="SVGID_8_">
		<use xlink:href="#SVGID_7_"  style="overflow:visible;"/>
	</clipPath>
	<path style="clip-path:url(#SVGID_8_);" d="M132.606,281.419c2.809,11.363,0.009,19.771-10.065,25.588
		c-10.861,6.271-23.396,2.107-30.522-10.232c-7.128-12.342-4.798-25.465,5.559-31.443c7.036-4.064,11.543-2.363,14.774-1.057
		l-2.648-4.588l6.923-3.996l7.977,13.816l-7.148,4.125c-2.151-1.777-3.327-2.381-4.938-2.963c-3.277-1.125-6.698-0.814-9.625,0.877
		c-6.528,3.771-7.292,11.154-2.094,20.158c4.968,8.605,12.038,11.623,18.51,7.883c2.871-1.654,4.637-4.186,5.308-7.439
		c0.288-1.453,0.357-3.152-0.17-6.018L132.606,281.419z"/>
	<path style="clip-path:url(#SVGID_8_);" d="M138.199,269.13c3.333,5.775,6.617,8.863,10.41,9.842
		c2.847,0.771,5.88,0.307,8.469-1.188c2.588-1.496,4.129-3.895,4.869-6.512c1.104-3.809,0.073-8.195-3.263-13.971
		c-4.869-8.438-11.292-11.371-17.821-7.602C134.335,253.468,133.328,260.697,138.199,269.13 M167.825,252.855
		c7.355,12.74,4.585,25.363-7.064,32.088c-11.199,6.467-23.856,2.225-31.21-10.516c-6.31-10.928-4.841-24.762,7.034-31.617
		C149.924,235.109,161.777,242.382,167.825,252.855"/>
</g>
<polygon points="157.215,232.257 172.185,223.617 184.549,235.802 196.844,248.255 191.96,231.22 187.551,214.743 202.521,206.098 
	206.279,212.613 203.13,214.431 218.657,241.324 221.806,239.507 225.567,246.019 215.21,251.996 200.436,226.404 196.256,218.775 
	195.299,216.99 205.698,257.488 200.296,260.605 169.717,230.779 177.032,242.408 190.729,266.132 180.259,272.175 176.501,265.664 
	179.595,263.876 164.069,236.98 160.975,238.769 "/>
<g>
	<defs>
		<rect id="SVGID_9_" width="417.64" height="325.453"/>
	</defs>
	<clipPath id="SVGID_10_">
		<use xlink:href="#SVGID_9_"  style="overflow:visible;"/>
	</clipPath>
	<path style="clip-path:url(#SVGID_10_);" d="M248.993,151.767c0.284,0.493,0.312,0.966,0.085,1.43
		c-0.122,0.453-0.452,0.836-0.986,1.142c-0.654,0.379-1.233,0.468-1.735,0.261c-0.543-0.176-1.015-0.614-1.42-1.316
		c-0.377-0.652-0.521-1.284-0.428-1.887c0.157-0.582,0.539-1.05,1.16-1.408c0.529-0.306,1.024-0.403,1.483-0.281
		c0.491,0.103,0.857,0.358,1.095,0.767l-0.492,0.283c-0.125,0.072-0.317,0.072-0.578,0.001c0.025,0.042-0.094-0.025-0.361-0.198
		c-0.317,0.017-0.56,0.07-0.723,0.165c-0.415,0.24-0.632,0.529-0.648,0.87c-0.023,0.346,0.099,0.74,0.356,1.188
		c0.289,0.498,0.568,0.8,0.854,0.908c0.3,0.151,0.662,0.111,1.077-0.127c0.203-0.118,0.373-0.3,0.508-0.541
		c0.023-0.342,0.006-0.605-0.046-0.795L248.993,151.767z M245.141,149.223c-0.369,0.214-0.702,0.484-1.002,0.825
		c-0.31,0.507-0.487,0.914-0.531,1.214c-0.095,0.218-0.142,0.449-0.135,0.691c0.003,0.244-0.004,0.452-0.01,0.619
		c0.119,0.594,0.264,1.034,0.426,1.316c0.143,0.248,0.441,0.57,0.891,0.968c0.467,0.333,0.869,0.511,1.21,0.533
		c0.308,0.152,0.745,0.2,1.318,0.145c0.441-0.091,0.847-0.239,1.214-0.454c0.41-0.236,0.768-0.525,1.067-0.861
		c0.075-0.157,0.178-0.333,0.3-0.547c0.127-0.208,0.201-0.429,0.232-0.669c0.11-0.281,0.156-0.716,0.145-1.313
		c-0.091-0.443-0.238-0.844-0.457-1.219c-0.259-0.448-0.567-0.787-0.925-1.027c-0.44-0.292-0.822-0.479-1.146-0.565
		c-0.2-0.054-0.415-0.077-0.662-0.074c-0.241,0.002-0.462-0.022-0.656-0.07C245.977,148.819,245.55,148.988,245.141,149.223
		 M244.784,148.609c0.41-0.237,0.924-0.396,1.535-0.478c0.336-0.082,0.872-0.063,1.596,0.064c0.528,0.247,1.001,0.493,1.418,0.745
		c0.49,0.375,0.855,0.765,1.09,1.174c0.264,0.457,0.418,0.968,0.475,1.538c0.062,0.294,0.031,0.805-0.099,1.538
		c-0.252,0.693-0.489,1.185-0.706,1.477c-0.482,0.5-0.886,0.84-1.216,1.031c-0.367,0.212-0.845,0.38-1.432,0.498
		c-0.551,0.101-1.095,0.055-1.635-0.126c-0.562-0.115-1.057-0.347-1.48-0.711c-0.377-0.271-0.71-0.652-0.996-1.15
		c-0.283-0.49-0.462-0.991-0.531-1.497c-0.078-0.503-0.034-1.05,0.123-1.634c0.153-0.584,0.37-1.063,0.644-1.44
		C244.054,149.14,244.459,148.797,244.784,148.609"/>
</g>
<g>
	<path style="fill:#FFFFFF;" d="M234.022,192.673l2.132-1.231l7.309,8.602l0.042-0.023l-4.109-10.449l2.425-1.4l6.059,16.627
		l-2.174,1.255l-7.639-8.886l-0.042,0.023l4.001,10.986l-2.174,1.256l-11.578-13.44l2.425-1.4l7.142,8.699l0.041-0.024
		L234.022,192.673z"/>
	<path style="fill:#FFFFFF;" d="M253.227,201.71l-8.715-15.093l6.941-4.007l1.304,2.258l-4.349,2.511l2.245,3.888l3.345-1.931
		l1.304,2.258l-3.345,1.931l2.559,4.432l4.641-2.68l1.304,2.259L253.227,201.71z"/>
	<path style="fill:#FFFFFF;" d="M254.837,180.657l3.847-2.221c2.78-1.605,4.834-0.896,6.318,1.675
		c0.749,1.297,0.99,2.97,0.025,4.195c1.654-0.175,3.031,0.424,4.154,2.368c1.436,2.487,1.414,5.009-1.533,6.71l-4.098,2.366
		L254.837,180.657z M261.002,185.347l0.94-0.543c0.982-0.567,1.349-1.671,0.625-2.925c-0.809-1.4-1.775-1.819-2.925-1.155
		l-0.982,0.567L261.002,185.347z M264.912,192.121l1.087-0.627c1.38-0.796,1.423-1.881,0.542-3.407
		c-0.893-1.547-1.925-1.982-3.473-1.089l-0.836,0.482L264.912,192.121z"/>
	<path style="fill:#FFFFFF;" d="M266.311,174.032l3.847-2.221c2.676-1.545,4.942-0.902,6.729,2.192l3.452,5.979
		c1.786,3.094,1.209,5.378-1.467,6.923l-3.846,2.221L266.311,174.032z M276.387,185.497l0.898-0.52
		c1.38-0.796,1.559-1.597,0.642-3.186l-3.814-6.606c-0.917-1.589-1.7-1.833-3.079-1.037l-0.899,0.52L276.387,185.497z"/>
	<path style="fill:#FFFFFF;" d="M286.52,182.489l-8.714-15.094l6.94-4.007l1.304,2.258l-4.349,2.511l2.245,3.888l3.345-1.931
		l1.304,2.258l-3.345,1.931l2.559,4.432l4.641-2.68l1.304,2.259L286.52,182.489z"/>
	<path style="fill:#FFFFFF;" d="M295.003,162.428c-0.854-1.235-1.76-1.213-2.345-0.875c-0.837,0.483-0.983,1.292-0.439,2.233
		c1.484,2.571,7.464,0.762,9.83,4.86c1.437,2.488,0.561,4.834-1.865,6.234c-2.403,1.388-4.894,0.261-6.302-1.937l2.262-1.779
		c0.985,1.466,2.026,1.869,2.862,1.386c0.899-0.519,1.228-1.35,0.709-2.249c-1.727-2.99-7.453-0.743-9.951-5.07
		c-1.389-2.404-0.709-4.607,1.841-6.08c2.111-1.219,4.247-0.418,5.708,1.582L295.003,162.428z"/>
	<path style="fill:#FFFFFF;" d="M307.523,170.363l-8.715-15.094l2.593-1.497l8.715,15.094L307.523,170.363z"/>
	<path style="fill:#FFFFFF;" d="M313.181,156.895l4.244-2.45l4.417,7.651l-1.254,0.724l-1.133-0.851
		c-0.242,1.366-0.628,2.146-1.841,2.846c-2.049,1.183-4.315,0.54-5.703-1.865l-4.489-7.776c-1.231-2.132-0.979-4.591,1.571-6.063
		c2.593-1.497,4.975-0.363,6.278,1.894l0.555,0.962l-2.467,1.424c-1.303-2.258-2.101-2.577-3.125-1.986
		c-0.627,0.362-0.934,1.04-0.197,2.315l4.479,7.756c0.555,0.962,1.23,1.408,2.13,0.889c1.045-0.604,1.083-1.407,0.214-2.912
		l-0.845-1.464l-1.651,0.954L313.181,156.895z"/>
	<path style="fill:#FFFFFF;" d="M325.518,159.974l-8.714-15.094l2.404-1.388l8.142,6.812l0.042-0.024l-4.985-8.634l2.342-1.352
		l8.715,15.094l-2.259,1.304l-8.746-7.522l-0.042,0.024l5.443,9.429L325.518,159.974z"/>
</g>
<g>
	<path style="fill:#FFFFFF;" d="M254.926,217.726c0.504,1.549,0.654,3.162,0.859,4.771c0.603,0.127,1.282,0.096,1.854-0.121
		l1.327,2.299c-1.12,0.619-2.374,0.814-3.591,0.541c-0.377,1.277-1.009,2.115-2.305,2.863c-2.195,1.268-4.449,0.645-5.656-1.445
		c-0.905-1.568-0.869-3.68-0.477-5.412c-1.243-0.898-2.833-2.155-3.593-3.472c-1.183-2.049-0.944-4.193,1.229-5.448
		c1.902-1.099,3.798-0.521,4.885,1.361c1.086,1.881,0.473,4.104,0.05,6.074c1.15,0.785,2.381,1.469,3.656,1.987
		c-0.176-1.125-0.352-2.25-0.698-3.333L254.926,217.726z M247.539,218.451c0.147-1.145,0.265-2.439-0.339-3.484
		c-0.676-1.17-1.275-1.438-1.882-1.087c-0.648,0.374-0.711,1.134-0.168,2.075C245.706,216.917,246.677,217.777,247.539,218.451z
		 M252.06,225.652c0.502-0.289,0.734-0.562,0.938-1.127c-1.338-0.482-2.637-1.041-3.82-1.836c-0.053,0.922-0.032,1.44,0.426,2.234
		C250.111,225.8,251.161,226.171,252.06,225.652z"/>
	<path style="fill:#FFFFFF;" d="M266.009,205.167c-0.853-1.236-1.761-1.215-2.346-0.877c-0.836,0.482-0.982,1.293-0.438,2.234
		c1.484,2.57,7.465,0.762,9.83,4.859c1.437,2.488,0.561,4.834-1.865,6.234c-2.403,1.387-4.894,0.26-6.302-1.938l2.262-1.779
		c0.985,1.466,2.026,1.869,2.863,1.386c0.898-0.519,1.227-1.351,0.708-2.249c-1.727-2.99-7.453-0.742-9.951-5.07
		c-1.388-2.402-0.709-4.607,1.842-6.08c2.111-1.219,4.246-0.417,5.707,1.583L266.009,205.167z"/>
	<path style="fill:#FFFFFF;" d="M272.269,199.602l-2.509,1.448l-1.304-2.258l7.61-4.393l1.303,2.258l-2.508,1.447l7.41,12.836
		l-2.592,1.497L272.269,199.602z"/>
	<path style="fill:#FFFFFF;" d="M289.941,206.513l-2.593,1.496l-8.714-15.093l3.638-2.1c2.905-1.677,5.102-1.302,6.96,1.917
		c1.4,2.426,1.027,3.952,0.379,4.856l6.142,5.568l-2.634,1.521l-5.449-5.189c-0.31,0.235-0.842,0.57-1.302,0.835L289.941,206.513z
		 M285.138,198.193l0.92-0.531c1.4-0.809,1.621-1.633,0.583-3.432c-1.038-1.797-1.862-2.018-3.263-1.209l-0.92,0.531
		L285.138,198.193z"/>
	<path style="fill:#FFFFFF;" d="M300.35,200.504l-2.51,1.448l-5.934-16.699l3.22-1.859l11.495,13.489l-2.509,1.447l-2.392-3.078
		l-2.843,1.641L300.35,200.504z M297.95,194.417l2.091-1.207l-4.766-5.888l-0.042,0.024L297.95,194.417z"/>
	<path style="fill:#FFFFFF;" d="M302.489,182.154l-2.509,1.448l-1.304-2.258l7.609-4.393l1.304,2.258l-2.508,1.448l7.41,12.836
		l-2.592,1.496L302.489,182.154z"/>
	<path style="fill:#FFFFFF;" d="M317.569,190.562l-8.714-15.094l6.94-4.007l1.304,2.258l-4.349,2.51l2.245,3.888l3.345-1.931
		l1.304,2.258l-3.345,1.931l2.559,4.432l4.641-2.679l1.304,2.259L317.569,190.562z M312.285,172.43l-1.735,1.001l-0.087-3.965
		l2.822-1.629L312.285,172.43z"/>
	<path style="fill:#FFFFFF;" d="M327.051,174.886l4.244-2.45l4.418,7.651l-1.255,0.724l-1.133-0.851
		c-0.242,1.367-0.628,2.146-1.841,2.847c-2.049,1.183-4.314,0.54-5.703-1.865l-4.489-7.776c-1.231-2.132-0.979-4.591,1.571-6.064
		c2.592-1.497,4.975-0.363,6.278,1.894l0.556,0.962l-2.468,1.424c-1.303-2.258-2.101-2.578-3.126-1.986
		c-0.627,0.362-0.932,1.041-0.195,2.316l4.478,7.756c0.556,0.962,1.231,1.408,2.13,0.889c1.045-0.603,1.083-1.407,0.215-2.912
		l-0.846-1.464l-1.651,0.954L327.051,174.886z"/>
	<path style="fill:#FFFFFF;" d="M339.744,177.76l-8.715-15.094l2.593-1.497l8.714,15.094L339.744,177.76z"/>
	<path style="fill:#FFFFFF;" d="M346.244,174.007l-8.715-15.094l6.94-4.007l1.304,2.258l-4.348,2.511l2.244,3.888l3.345-1.931
		l1.304,2.258l-3.345,1.931l2.559,4.432l4.641-2.68l1.304,2.259L346.244,174.007z"/>
</g>
</svg>
